<mxfile host="Electron" modified="2024-03-01T13:04:22.839Z" agent="Mozilla/5.0 (Windows NT 10.0; Win64; x64) AppleWebKit/537.36 (KHTML, like Gecko) draw.io/23.1.5 Chrome/120.0.6099.109 Electron/28.1.0 Safari/537.36" etag="xr_qpzssa0pHQDNEcGt6" version="23.1.5" type="device">
  <diagram name="Page-1" id="Ha8s6_4_4nTsxysomdbX">
    <mxGraphModel dx="978" dy="571" grid="1" gridSize="10" guides="1" tooltips="1" connect="1" arrows="1" fold="1" page="1" pageScale="1" pageWidth="827" pageHeight="1169" math="0" shadow="0">
      <root>
        <mxCell id="0" />
        <mxCell id="1" parent="0" />
        <mxCell id="b05tRreRK-wASMQT4Ede-18" value="&lt;font style=&quot;font-size: 16px;&quot;&gt;Without CDN&lt;/font&gt;" style="rounded=1;whiteSpace=wrap;html=1;strokeColor=#7C8A9A;strokeWidth=1;fontColor=#212121;fillColor=none;dashed=1;fontFamily=VK Sans Display;verticalAlign=top;spacing=10;fontStyle=1;arcSize=12;absoluteArcSize=1;fontSize=16;" parent="1" vertex="1">
          <mxGeometry x="43" y="39" width="311" height="440" as="geometry" />
        </mxCell>
        <mxCell id="ORFmp-qxtVZmML3bKdfE-1" value="" style="shape=image;verticalLabelPosition=bottom;labelBackgroundColor=default;verticalAlign=top;aspect=fixed;imageAspect=0;image=data:image/svg+xml,PHN2ZyB4bWxucz0iaHR0cDovL3d3dy53My5vcmcvMjAwMC9zdmciIGZpbGw9Im5vbmUiIHZpZXdCb3g9IjAgMCAyOCAyOCIgaGVpZ2h0PSIyOCIgd2lkdGg9IjI4Ij4mI3hhOzxwYXRoIGZpbGw9IiMyNjg4RUIiIGQ9Ik0xNy41IDguNUMxNy41IDYuNTY2MDMgMTUuOTM0IDUgMTQgNUMxMi4wNjYgNSAxMC41IDYuNTY2MDMgMTAuNSA4LjVDMTAuNSAxMC40MzQgMTIuMDY2IDEyIDE0IDEyQzE1LjkzNCAxMiAxNy41IDEwLjQzNCAxNy41IDguNVpNMTkuNSA4LjVDMTkuNSAxMS41Mzg1IDE3LjAzODUgMTQgMTQgMTRDMTAuOTYxNSAxNCA4LjUgMTEuNTM4NSA4LjUgOC41QzguNSA1LjQ2MTQ3IDEwLjk2MTUgMyAxNCAzQzE3LjAzODUgMyAxOS41IDUuNDYxNDcgMTkuNSA4LjVaTTcgMjAuNjQyOUM3IDIxLjU4NjIgNi45MTk4NyAyMS41IDcuNDU1ODggMjEuNUgyMS4wNDQxQzIxLjU4MDEgMjEuNSAyMS41IDIxLjU4NjIgMjEuNSAyMC42NDI5QzIxLjUgMTguMzU0NyAxOC4xOTYgMTcgMTQuMjUgMTdDMTAuMzA0IDE3IDcgMTguMzU0NyA3IDIwLjY0MjlaTTUgMjAuNjQyOUM1IDE2Ljc2MjYgOS4yOTg5MiAxNSAxNC4yNSAxNUMxOS4yMDExIDE1IDIzLjUgMTYuNzYyNiAyMy41IDIwLjY0MjlDMjMuNSAyMi42NTkzIDIyLjcxODkgMjMuNSAyMS4wNDQxIDIzLjVINy40NTU4OEM1Ljc4MTExIDIzLjUgNSAyMi42NTkzIDUgMjAuNjQyOVoiLz4mI3hhOzwvc3ZnPg==;fontFamily=VK Sans Display;spacing=-7;fontColor=#212121;fontSize=16;" parent="1" vertex="1">
          <mxGeometry x="115" y="100" width="40" height="40" as="geometry" />
        </mxCell>
        <mxCell id="9j2e3ir7Lk6FHDookw-K-1" value="&lt;font style=&quot;font-size: 16px;&quot;&gt;With CDN&lt;/font&gt;" style="rounded=1;whiteSpace=wrap;html=1;strokeColor=#7C8A9A;strokeWidth=1;fontColor=#212121;fillColor=none;dashed=1;fontFamily=VK Sans Display;verticalAlign=top;spacing=10;fontStyle=1;arcSize=12;absoluteArcSize=1;" parent="1" vertex="1">
          <mxGeometry x="364" y="40" width="430" height="440" as="geometry" />
        </mxCell>
        <mxCell id="9j2e3ir7Lk6FHDookw-K-2" value="Origin&#xa;servers" style="shape=image;verticalLabelPosition=bottom;labelBackgroundColor=default;verticalAlign=bottom;aspect=fixed;imageAspect=0;image=data:image/svg+xml,PHN2ZyB4bWxucz0iaHR0cDovL3d3dy53My5vcmcvMjAwMC9zdmciIGlkPSJzdmcxIiB2ZXJzaW9uPSIxLjEiIGZpbGw9Im5vbmUiIHZpZXdCb3g9IjAgMCA0OC4zMzMzMDIgMjkuNjY2NTk5IiBoZWlnaHQ9IjI5LjY2NjU5OSIgd2lkdGg9IjQ4LjMzMzMwMiI+JiN4YTsgIDxkZWZzIGlkPSJkZWZzMSIvPiYjeGE7ICAmI3hhOyAgPHBhdGggaWQ9InBhdGgxIiBmaWxsPSIjMDA3N2ZmIiBkPSJNIDAsMTAuMzMzMyBDIDAsNy4wNjY0IDAsNC40MzI5IDAuNjM1OCwzLjE4NTEgMS4xOTUwNiwyLjA4NzQgMi4wODc0NCwxLjE5NTEgMy4xODUwNiwwLjYzNTggMy4zMTA5MiwwLjU3MTcgMy40MjAzNywwLjUxNCAzLjUxODc3LDAuNDYyMiAzLjc0OTQsMC4zNDA2IDMuOTE5MzksMC4yNTExIDQuMDk4MDcsMC4xODUxIDQuNTk4OTgsMCA1LjE2ODI1LDAgNy4zMzMzMywwIEggMTIgYyAyLjE2NTEsMCAyLjczNDQsMCAzLjIzNTMsMC4xODUxIDAuMTc4NiwwLjA2NiAwLjM0ODYsMC4xNTU1IDAuNTc5MywwLjI3NyAwLjA5ODMsMC4wNTE5IDAuMjA3OCwwLjEwOTYgMC4zMzM3LDAuMTczNyAxLjA5NzYsMC41NTkzIDEuOTksMS40NTE2IDIuNTQ5MiwyLjU0OTMgMC4xNzU3LDAuMzQ0NyAwLjMwMjgsMC43OTUxIDAuMzk0OCwxLjMzNTQgMC4wMDE5LC03ZS00IDAuMDAzOCwtMC4wMDE0IDAuMDA1OCwtMC4wMDIxIDAuNTAwOSwtMC4xODUxIDEuMDcwMiwtMC4xODUxIDMuMjM1MiwtMC4xODUxIEggMjcgYyAxLjEwNDUsMCAxLjc5MzYsMCAyLjI3MDMsMC4wMjQ2IDAuMDg5MiwtMC40Njg2IDAuMjA3OCwtMC44NjMzIDAuMzY1NSwtMS4xNzI4IDAuNTU5MywtMS4wOTc3IDEuNDUxNiwtMS45OSAyLjU0OTMsLTIuNTQ5MyBDIDMyLjMxMDksMC41NzE3IDMyLjQyMDQsMC41MTQgMzIuNTE4OCwwLjQ2MjIgMzIuNzQ5NCwwLjM0MDYgMzIuOTE5NCwwLjI1MTEgMzMuMDk4MSwwLjE4NTEgMzMuNTk5LDAgMzQuMTY4MywwIDM2LjMzMzMsMCBIIDQxIGMgMi4xNjUxLDAgMi43MzQ0LDAgMy4yMzUzLDAuMTg1MSAwLjE3ODYsMC4wNjYgMC4zNDg2LDAuMTU1NSAwLjU3OTMsMC4yNzcgMC4wOTgzLDAuMDUxOSAwLjIwNzgsMC4xMDk2IDAuMzMzNywwLjE3MzcgMS4wOTc2LDAuNTU5MyAxLjk5LDEuNDUxNiAyLjU0OTIsMi41NDkzIDAuNjM1OCwxLjI0NzggMC42MzU4LDMuODgxMyAwLjYzNTgsNy4xNDgyIFYgMTUgYyAwLDMuMjY3IDAsNS45MDA1IC0wLjYzNTgsNy4xNDgzIC0wLjU1OTIsMS4wOTc2IC0xLjQ1MTYsMS45OSAtMi41NDkyLDIuNTQ5MiAtMC4xMjU2LDAuMDY0IC0wLjIzNDgsMC4xMjE1IC0wLjMzMywwLjE3MzMgLTAuMjMwNiwwLjEyMTUgLTAuNDAxNCwwLjIxMTUgLTAuNTgsMC4yNzc1IC0wLjUwMDksMC4xODUgLTEuMDcwMiwwLjE4NSAtMy4yMzUzLDAuMTg1IGggLTQuNjY2NyBjIC0xLjEwNDQsMCAtMS43OTM2LDAgLTIuMjcwMywtMC4wMjQ1IC0wLjA4OTIsMC40Njg1IC0wLjIwNzgsMC44NjMzIC0wLjM2NTUsMS4xNzI4IC0wLjU1OTIsMS4wOTc2IC0xLjQ1MTYsMS45OSAtMi41NDkyLDIuNTQ5MiAtMC4xMjU3LDAuMDY0MSAtMC4yMzUxLDAuMTIxNyAtMC4zMzM0LDAuMTczNSAtMC4yMzA2LDAuMTIxNSAtMC40MDEsMC4yMTEzIC0wLjU3OTYsMC4yNzczIC0wLjUwMDksMC4xODUgLTEuMDcwMiwwLjE4NSAtMy4yMzUzLDAuMTg1IGggLTQuNjY2NyBjIC0yLjE2NSwwIC0yLjczNDMsMCAtMy4yMzUyLC0wLjE4NSAtMC4xNzg3LC0wLjA2NiAtMC4zNDg3LC0wLjE1NTYgLTAuNTc5MywtMC4yNzcxIC0wLjA5ODQsLTAuMDUxOCAtMC4yMDc5LC0wLjEwOTUgLTAuMzMzNywtMC4xNzM3IC0xLjA5NzcsLTAuNTU5MiAtMS45OSwtMS40NTE2IC0yLjU0OTMsLTIuNTQ5MiAtMC4xNzU2LC0wLjM0NDcgLTAuMzAyOCwtMC43OTUxIC0wLjM5NDgsLTEuMzM1NSAtMC4wMDE5LDdlLTQgLTAuMDAzOCwwLjAwMTUgLTAuMDA1NywwLjAwMjIgLTAuNTAwOSwwLjE4NSAtMS4wNzAyLDAuMTg1IC0zLjIzNTMsMC4xODUgSCA3LjMzMzMzIGMgLTIuMTY1MDgsMCAtMi43MzQzNSwwIC0zLjIzNTI2LC0wLjE4NSBDIDMuOTE5MzksMjUuMDgyMyAzLjc0OTQxLDI0Ljk5MjcgMy41MTg3OCwyNC44NzEyIDMuNDIwNDEsMjQuODE5NCAzLjMxMDg4LDI0Ljc2MTYgMy4xODUwNiwyNC42OTc1IDIuMDg3NDQsMjQuMTM4MyAxLjE5NTA2LDIzLjI0NTkgMC42MzU4LDIyLjE0ODMgMCwyMC45MDA1IDAsMTguMjY3IDAsMTUgWiBtIDE1LjAzNywxMi40NzAxIGMgLTAuMDE5LC0wLjUzMDMgLTAuMDI4MiwtMS4wOTczIC0wLjAzMjcsLTEuNjk1MSAtMC4xMDU1LDAuMDM3OCAtMC4yMTkyLDAuMDU4NCAtMC4zMzc2LDAuMDU4NCBIIDQuNjY2NjYgYyAtMC41NTIyOSwwIC0xLC0wLjQ0NzcgLTEsLTEgMCwtMC41NTIzIDAuNDQ3NzEsLTEgMSwtMSBIIDE0LjY2NjcgYyAwLjExNjgsMCAwLjIyOSwwLjAyIDAuMzMzMywwLjA1NjkgdiAtMi4xMTM4IGMgLTAuMTA0MywwLjAzNjggLTAuMjE2NSwwLjA1NjkgLTAuMzMzMywwLjA1NjkgSCA0LjY2NjY2IGMgLTAuNTUyMjksMCAtMSwtMC40NDc3IC0xLC0xIDAsLTAuNTUyMyAwLjQ0NzcxLC0xIDEsLTEgSCAxNC42NjY3IGMgMC4xMTY4LDAgMC4yMjksMC4wMiAwLjMzMzMsMC4wNTY5IHYgLTAuNTU3IEMgMTUsMTEuMzk5NyAxNSw4Ljc2NjIgMTUuNjM1OCw3LjUxODQgMTUuOTkxOCw2LjgxOTcgMTYuNDgyNyw2LjIwNDMgMTcuMDc1Niw1LjcwNDkgMTcuMDc0OSw1LjY5NjUgMTcuMDc0Myw1LjY4ODMgMTcuMDczNiw1LjY4MDEgMTcuMDA1Miw0Ljg0MjcgMTYuODgzLDQuNDQyMyAxNi43NDg1LDQuMTc4MiAxNi4zOTg5LDMuNDkyMiAxNS44NDEyLDIuOTM0NCAxNS4xNTUyLDIuNTg0OSAxNC44OTEsMi40NTAzIDE0LjQ5MDYsMi4zMjgxIDEzLjY1MzIsMi4yNTk3IDEzLjM1MzQsMi4yMzUyIDEzLjI2MzksMi4yMTkgMTMuMjA0NywyLjIwODMgMTMuMDkzNiwyLjE4ODIgMTMuMDg5NiwyLjE4NzUgMTIsMi4xODc1IEggNy4zMzMzMyBjIC0xLjA4OTU2LDAgLTEuMDkzNTcsN2UtNCAtMS4yMDQ3MSwwLjAyMDggQyA2LjA2OTQ2LDIuMjE5IDUuOTc5OTQsMi4yMzUyIDUuNjgwMTQsMi4yNTk3IDQuODQyNywyLjMyODEgNC40NDIzLDIuNDUwMyA0LjE3ODE2LDIuNTg0OSAzLjQ5MjE1LDIuOTM0NCAyLjkzNDQxLDMuNDkyMiAyLjU4NDg3LDQuMTc4MiAyLjQ1MDI5LDQuNDQyMyAyLjMyODEzLDQuODQyNyAyLjI1OTcxLDUuNjgwMSAyLjE4OTIsNi41NDMxIDIuMTg3NSw4LjY2MzggMi4xODc1LDEwLjMzMzMgViAxNSBjIDAsMS42Njk2IDAuMDAxNywzLjc5MDIgMC4wNzIyMSw0LjY1MzIgMC4wNjg0MiwwLjgzNzQgMC4xOTA1OCwxLjIzNzggMC4zMjUxNiwxLjUwMiAwLjM0OTU0LDAuNjg2IDAuOTA3MjgsMS4yNDM3IDEuNTkzMjksMS41OTMzIDAuMjY0MTQsMC4xMzQ1IDAuNjY0NTQsMC4yNTY3IDEuNTAxOTgsMC4zMjUxIDAuMjk5OCwwLjAyNDUgMC4zODkzMiwwLjA0MDcgMC40NDg0OCwwLjA1MTQgMC4xMTExNCwwLjAyMDEgMC4xMTUxNCwwLjAyMDggMS4yMDQ3MSwwLjAyMDggSCAxMiBjIDEuMDg5NiwwIDEuMDkzNiwtN2UtNCAxLjIwNDcsLTAuMDIwOCAwLjA1OTIsLTAuMDEwNyAwLjE0ODcsLTAuMDI2OSAwLjQ0ODUsLTAuMDUxNCAwLjcyMTcsLTAuMDU4OSAxLjExODgsLTAuMTU3OCAxLjM4MzgsLTAuMjcwMiB6IG0gMTkuMjUwMywwLjIzMDYgYyAwLjExOTIsMC4wMTQ2IDAuMjQ5NiwwLjAyNzkgMC4zOTI4LDAuMDM5NiAwLjI5OTgsMC4wMjQ1IDAuMzg5NCwwLjA0MDcgMC40NDg1LDAuMDUxNCAwLjExMTIsMC4wMjAxIDAuMTE1MiwwLjAyMDggMS4yMDQ3LDAuMDIwOCBIIDQxIGMgMS4wODk2LDAgMS4wOTM2LC03ZS00IDEuMjA0NywtMC4wMjA4IDAuMDU5MiwtMC4wMTA3IDAuMTQ4NywtMC4wMjY5IDAuNDQ4NSwtMC4wNTE0IDAuODM3NCwtMC4wNjg0IDEuMjM3OCwtMC4xOTA2IDEuNTAyLC0wLjMyNTEgMC42ODYsLTAuMzQ5NiAxLjI0MzcsLTAuOTA3MyAxLjU5MzMsLTEuNTkzMyAwLjEzNDUsLTAuMjY0MiAwLjI1NjcsLTAuNjY0NiAwLjMyNTEsLTEuNTAyIDAuMDcwNSwtMC44NjMgMC4wNzIyLC0yLjk4MzYgMC4wNzIyLC00LjY1MzIgdiAtNC42NjY3IGMgMCwtMS42Njk1IC0wLjAwMTcsLTMuNzkwMiAtMC4wNzIyLC00LjY1MzIgQyA0Ni4wMDUyLDQuODQyNyA0NS44ODMsNC40NDIzIDQ1Ljc0ODUsNC4xNzgyIDQ1LjM5ODksMy40OTIyIDQ0Ljg0MTIsMi45MzQ0IDQ0LjE1NTIsMi41ODQ5IDQzLjg5MSwyLjQ1MDMgNDMuNDkwNiwyLjMyODEgNDIuNjUzMiwyLjI1OTcgNDIuMzUzNCwyLjIzNTIgNDIuMjYzOSwyLjIxOSA0Mi4yMDQ3LDIuMjA4MyA0Mi4wOTM2LDIuMTg4MiA0Mi4wODk2LDIuMTg3NSA0MSwyLjE4NzUgaCAtNC42NjY3IGMgLTEuMDg5NSwwIC0xLjA5MzUsN2UtNCAtMS4yMDQ3LDAuMDIwOCAtMC4wNTkxLDAuMDEwNyAtMC4xNDg3LDAuMDI2OSAtMC40NDg1LDAuMDUxNCAtMC44Mzc0LDAuMDY4NCAtMS4yMzc4LDAuMTkwNiAtMS41MDE5LDAuMzI1MiAtMC42ODYsMC4zNDk1IC0xLjI0MzgsMC45MDczIC0xLjU5MzMsMS41OTMzIC0wLjA5NjQsMC4xODkxIC0wLjE4NjQsMC40NDgyIC0wLjI1NDksMC44ODc2IDEuMDE0NCwwLjU2MjggMS44Mzk1LDEuNDE2MiAyLjM2NzUsMi40NTI2IDAuNjM1OCwxLjI0NzggMC42MzU4LDMuODgxMyAwLjYzNTgsNy4xNDgyIHYgMC41MDAxIGggOS4zMzM0IGMgMC41NTIyLDAgMSwwLjQ0NzcgMSwxIDAsMC41NTIzIC0wLjQ0NzgsMSAtMSwxIGggLTkuMzMzNCB2IDIgaCA5LjMzMzQgYyAwLjU1MjIsMCAxLDAuNDQ3NyAxLDEgMCwwLjU1MjMgLTAuNDQ3OCwxIC0xLDEgaCAtOS4zMzgxIGMgLTAuMDA1MywwLjY2MzYgLTAuMDE2OCwxLjI4ODcgLTAuMDQxMywxLjg2NzMgeiBNIDMuNjY2NjYsNS4xNjY3IGMgMCwtMC41NTIzIDAuNDQ3NzEsLTEgMSwtMSBIIDE0LjY2NjcgYyAwLjU1MjIsMCAxLDAuNDQ3NyAxLDEgMCwwLjU1MjMgLTAuNDQ3OCwxIC0xLDEgSCA0LjY2NjY2IGMgLTAuNTUyMjksMCAtMSwtMC40NDc3IC0xLC0xIHogbSAyOS4wMDAwNCwwIGMgMCwtMC41NTIzIDAuNDQ3NywtMSAxLC0xIGggMTAgYyAwLjU1MjIsMCAxLDAuNDQ3NyAxLDEgMCwwLjU1MjMgLTAuNDQ3OCwxIC0xLDEgaCAtMTAgYyAtMC41NTIzLDAgLTEsLTAuNDQ3NyAtMSwtMSB6IE0gMjIuMzMzMyw2LjUyMDggSCAyNyBjIDEuMDg5NiwwIDEuMDkzNiw3ZS00IDEuMjA0NywwLjAyMDggMC4wNTkyLDAuMDEwNyAwLjE0ODcsMC4wMjY5IDAuNDQ4NSwwLjA1MTQgMC44Mzc0LDAuMDY4NCAxLjIzNzgsMC4xOTA2IDEuNTAyLDAuMzI1MiAwLjY4NiwwLjM0OTUgMS4yNDM3LDAuOTA3MyAxLjU5MzMsMS41OTMzIDAuMTM0NSwwLjI2NDEgMC4yNTY3LDAuNjY0NSAwLjMyNTEsMS41MDIgMC4wNzA1LDAuODYyOSAwLjA3MjIsMi45ODM2IDAuMDcyMiw0LjY1MzEgdiA0LjY2NjcgYyAwLDEuNjY5NiAtMC4wMDE3LDMuNzkwMiAtMC4wNzIyLDQuNjUzMiAtMC4wNjg0LDAuODM3NCAtMC4xOTA2LDEuMjM3OCAtMC4zMjUxLDEuNTAyIC0wLjM0OTYsMC42ODYgLTAuOTA3MywxLjI0MzcgLTEuNTkzMywxLjU5MzMgLTAuMjY0MiwwLjEzNDYgLTAuNjY0NiwwLjI1NjcgLTEuNTAyLDAuMzI1MSAtMC4yOTk4LDAuMDI0NSAtMC4zODkzLDAuMDQwNyAtMC40NDg1LDAuMDUxNCAtMC4xMTExLDAuMDIwMSAtMC4xMTUxLDAuMDIwOCAtMS4yMDQ3LDAuMDIwOCBoIC00LjY2NjcgYyAtMS4wODk1LDAgLTEuMDkzNSwtN2UtNCAtMS4yMDQ3LC0wLjAyMDggLTAuMDU5MSwtMC4wMTA3IC0wLjE0ODcsLTAuMDI2OSAtMC40NDg1LC0wLjA1MTQgLTAuODM3NCwtMC4wNjg0IC0xLjIzNzgsLTAuMTkwNSAtMS41MDE5LC0wLjMyNTEgLTAuNjg2LC0wLjM0OTYgLTEuMjQzOCwtMC45MDczIC0xLjU5MzMsLTEuNTkzMyAtMC4xMzQ2LC0wLjI2NDIgLTAuMjU2OCwtMC42NjQ2IC0wLjMyNTIsLTEuNTAyIC0wLjA3MDUsLTAuODYzIC0wLjA3MjIsLTIuOTgzNiAtMC4wNzIyLC00LjY1MzIgdiAtNC42NjY3IGMgMCwtMS42Njk1IDAuMDAxNywtMy43OTAyIDAuMDcyMiwtNC42NTMxIDAuMDY4NCwtMC44Mzc1IDAuMTkwNiwtMS4yMzc5IDAuMzI1MiwtMS41MDIgMC4zNDk1LC0wLjY4NiAwLjkwNzMsLTEuMjQzOCAxLjU5MzMsLTEuNTkzMyAwLjI2NDEsLTAuMTM0NiAwLjY2NDUsLTAuMjU2OCAxLjUwMTksLTAuMzI1MiAwLjI5OTgsLTAuMDI0NSAwLjM4OTQsLTAuMDQwNyAwLjQ0ODUsLTAuMDUxNCAwLjExMTIsLTAuMDIwMSAwLjExNTIsLTAuMDIwOCAxLjIwNDcsLTAuMDIwOCB6IE0gMTguNjY2Nyw5LjUgYyAwLC0wLjU1MjMgMC40NDc3LC0xIDEsLTEgaCAxMCBjIDAuNTUyMiwwIDEsMC40NDc3IDEsMSAwLDAuNTUyMyAtMC40NDc4LDEgLTEsMSBoIC0xMCBjIC0wLjU1MjMsMCAtMSwtMC40NDc3IC0xLC0xIHogbSAxLDEwIGMgLTAuNTUyMywwIC0xLDAuNDQ3NyAtMSwxIDAsMC41NTIzIDAuNDQ3NywxIDEsMSBoIDEwIGMgMC41NTIyLDAgMSwtMC40NDc3IDEsLTEgMCwtMC41NTIzIC0wLjQ0NzgsLTEgLTEsLTEgeiBtIC0xLDUgYyAwLC0wLjU1MjMgMC40NDc3LC0xIDEsLTEgaCAxMCBjIDAuNTUyMiwwIDEsMC40NDc3IDEsMSAwLDAuNTUyMyAtMC40NDc4LDEgLTEsMSBoIC0xMCBjIC0wLjU1MjMsMCAtMSwtMC40NDc3IC0xLC0xIHoiIGNsaXAtcnVsZT0iZXZlbm9kZCIgZmlsbC1ydWxlPSJldmVub2RkIi8+JiN4YTs8L3N2Zz4=;fontFamily=VK Sans Display;fontSize=16;" parent="1" vertex="1">
          <mxGeometry x="212.72999999999996" y="102" width="68" height="42.5" as="geometry" />
        </mxCell>
        <mxCell id="9j2e3ir7Lk6FHDookw-K-5" value="Servers&#xa;load" style="shape=image;verticalLabelPosition=bottom;labelBackgroundColor=default;verticalAlign=top;imageAspect=0;image=data:image/svg+xml,PHN2ZyB4bWxucz0iaHR0cDovL3d3dy53My5vcmcvMjAwMC9zdmciIGZpbGw9Im5vbmUiIHZpZXdCb3g9IjAgMCAyOCAyOCIgaGVpZ2h0PSIyOCIgd2lkdGg9IjI4Ij4mI3hhOzxwYXRoIGZpbGw9IiNGRkEzODEiIGQ9Ik00LjMzMzM0IDExLjY2NjZDNC4zMzMzNCA4LjM5OTY3IDQuMzMzMzQgNS43NjYxOSA0Ljk2OTE0IDQuNTE4MzdDNS41Mjg0IDMuNDIwNzYgNi40MjA3OSAyLjUyODM3IDcuNTE4NCAxLjk2OTExQzcuNjQ0MjcgMS45MDQ5NyA3Ljc1MzcxIDEuODQ3MzEgNy44NTIxMSAxLjc5NTQ2QzguMDgyNzQgMS42NzM5NSA4LjI1MjczIDEuNTg0MzggOC40MzE0MiAxLjUxODM3QzguOTMyMzIgMS4zMzMzMSA5LjUwMTYgMS4zMzMzMSAxMS42NjY3IDEuMzMzMzFIMTYuMzMzM0MxOC40OTg0IDEuMzMzMzEgMTkuMDY3NyAxLjMzMzMxIDE5LjU2ODYgMS41MTgzN0MxOS43NDczIDEuNTg0MzggMTkuOTE3MyAxLjY3Mzk5IDIwLjE0OCAxLjc5NTVDMjAuMjQ2NCAxLjg0NzM0IDIwLjM1NTggMS45MDQ5OSAyMC40ODE2IDEuOTY5MTFDMjEuNTc5MiAyLjUyODM3IDIyLjQ3MTYgMy40MjA3NiAyMy4wMzA5IDQuNTE4MzdDMjMuNjY2NyA1Ljc2NjE5IDIzLjY2NjcgOC4zOTk2NyAyMy42NjY3IDExLjY2NjZWMTYuMzMzM0MyMy42NjY3IDE5LjYwMDMgMjMuNjY2NyAyMi4yMzM4IDIzLjAzMDkgMjMuNDgxNkMyMi40NzE2IDI0LjU3OTIgMjEuNTc5MiAyNS40NzE2IDIwLjQ4MTYgMjYuMDMwOEMyMC4zNTU5IDI2LjA5NDkgMjAuMjQ2NSAyNi4xNTI1IDIwLjE0ODIgMjYuMjA0M0wyMC4xNDc5IDI2LjIwNDVDMTkuOTE3MyAyNi4zMjYgMTkuNzQ3MyAyNi40MTU2IDE5LjU2ODYgMjYuNDgxNkMxOS4wNjc3IDI2LjY2NjYgMTguNDk4NCAyNi42NjY2IDE2LjMzMzMgMjYuNjY2NkgxMS42NjY3QzkuNTAxNiAyNi42NjY2IDguOTMyMzIgMjYuNjY2NiA4LjQzMTQyIDI2LjQ4MTZDOC4yNTI3MyAyNi40MTU2IDguMDgyNjIgMjYuMzI2IDcuODUyIDI2LjIwNDRDNy43NTM2MyAyNi4xNTI2IDcuNjQ0MjIgMjYuMDk1IDcuNTE4NCAyNi4wMzA4QzYuNDIwNzkgMjUuNDcxNiA1LjUyODQgMjQuNTc5MiA0Ljk2OTE0IDIzLjQ4MTZDNC4zMzMzNCAyMi4yMzM4IDQuMzMzMzQgMTkuNjAwMyA0LjMzMzM0IDE2LjMzMzNWMTEuNjY2NlpNOCA2LjVDOCA1Ljk0NzcyIDguNDQ3NzIgNS41IDkgNS41SDE5QzE5LjU1MjMgNS41IDIwIDUuOTQ3NzIgMjAgNi41QzIwIDcuMDUyMjggMTkuNTUyMyA3LjUgMTkgNy41SDlDOC40NDc3MiA3LjUgOCA3LjA1MjI4IDggNi41Wk05IDE2LjVDOC40NDc3MiAxNi41IDggMTYuOTQ3NyA4IDE3LjVDOCAxOC4wNTIzIDguNDQ3NzIgMTguNSA5IDE4LjVIMTlDMTkuNTUyMyAxOC41IDIwIDE4LjA1MjMgMjAgMTcuNUMyMCAxNi45NDc3IDE5LjU1MjMgMTYuNSAxOSAxNi41SDlaTTggMjEuNUM4IDIwLjk0NzcgOC40NDc3MiAyMC41IDkgMjAuNUgxOUMxOS41NTIzIDIwLjUgMjAgMjAuOTQ3NyAyMCAyMS41QzIwIDIyLjA1MjMgMTkuNTUyMyAyMi41IDE5IDIyLjVIOUM4LjQ0NzcyIDIyLjUgOCAyMi4wNTIzIDggMjEuNVoiIGNsaXAtcnVsZT0iZXZlbm9kZCIgZmlsbC1ydWxlPSJldmVub2RkIi8+JiN4YTs8L3N2Zz4=;fontFamily=VK Sans Display;fontSize=16;" parent="1" vertex="1">
          <mxGeometry x="298" y="100" width="40" height="40" as="geometry" />
        </mxCell>
        <mxCell id="9j2e3ir7Lk6FHDookw-K-11" value="" style="shape=image;verticalLabelPosition=bottom;labelBackgroundColor=default;verticalAlign=top;aspect=fixed;imageAspect=0;image=data:image/svg+xml,PHN2ZyB4bWxucz0iaHR0cDovL3d3dy53My5vcmcvMjAwMC9zdmciIGZpbGw9Im5vbmUiIHZpZXdCb3g9IjAgMCAyOCAyOCIgaGVpZ2h0PSIyOCIgd2lkdGg9IjI4Ij4mI3hhOzxwYXRoIGZpbGw9IiMyNjg4RUIiIGQ9Ik0xNy41IDguNUMxNy41IDYuNTY2MDMgMTUuOTM0IDUgMTQgNUMxMi4wNjYgNSAxMC41IDYuNTY2MDMgMTAuNSA4LjVDMTAuNSAxMC40MzQgMTIuMDY2IDEyIDE0IDEyQzE1LjkzNCAxMiAxNy41IDEwLjQzNCAxNy41IDguNVpNMTkuNSA4LjVDMTkuNSAxMS41Mzg1IDE3LjAzODUgMTQgMTQgMTRDMTAuOTYxNSAxNCA4LjUgMTEuNTM4NSA4LjUgOC41QzguNSA1LjQ2MTQ3IDEwLjk2MTUgMyAxNCAzQzE3LjAzODUgMyAxOS41IDUuNDYxNDcgMTkuNSA4LjVaTTcgMjAuNjQyOUM3IDIxLjU4NjIgNi45MTk4NyAyMS41IDcuNDU1ODggMjEuNUgyMS4wNDQxQzIxLjU4MDEgMjEuNSAyMS41IDIxLjU4NjIgMjEuNSAyMC42NDI5QzIxLjUgMTguMzU0NyAxOC4xOTYgMTcgMTQuMjUgMTdDMTAuMzA0IDE3IDcgMTguMzU0NyA3IDIwLjY0MjlaTTUgMjAuNjQyOUM1IDE2Ljc2MjYgOS4yOTg5MiAxNSAxNC4yNSAxNUMxOS4yMDExIDE1IDIzLjUgMTYuNzYyNiAyMy41IDIwLjY0MjlDMjMuNSAyMi42NTkzIDIyLjcxODkgMjMuNSAyMS4wNDQxIDIzLjVINy40NTU4OEM1Ljc4MTExIDIzLjUgNSAyMi42NTkzIDUgMjAuNjQyOVoiLz4mI3hhOzwvc3ZnPg==;fontFamily=VK Sans Display;spacing=-7;fontColor=#212121;fontSize=16;" parent="1" vertex="1">
          <mxGeometry x="168.28000000000003" y="255" width="40" height="40" as="geometry" />
        </mxCell>
        <mxCell id="9j2e3ir7Lk6FHDookw-K-12" value="" style="shape=image;verticalLabelPosition=bottom;labelBackgroundColor=default;verticalAlign=top;aspect=fixed;imageAspect=0;image=data:image/svg+xml,PHN2ZyB4bWxucz0iaHR0cDovL3d3dy53My5vcmcvMjAwMC9zdmciIGZpbGw9Im5vbmUiIHZpZXdCb3g9IjAgMCAyOCAyOCIgaGVpZ2h0PSIyOCIgd2lkdGg9IjI4Ij4mI3hhOzxwYXRoIGZpbGw9IiMyNjg4RUIiIGQ9Ik0xNy41IDguNUMxNy41IDYuNTY2MDMgMTUuOTM0IDUgMTQgNUMxMi4wNjYgNSAxMC41IDYuNTY2MDMgMTAuNSA4LjVDMTAuNSAxMC40MzQgMTIuMDY2IDEyIDE0IDEyQzE1LjkzNCAxMiAxNy41IDEwLjQzNCAxNy41IDguNVpNMTkuNSA4LjVDMTkuNSAxMS41Mzg1IDE3LjAzODUgMTQgMTQgMTRDMTAuOTYxNSAxNCA4LjUgMTEuNTM4NSA4LjUgOC41QzguNSA1LjQ2MTQ3IDEwLjk2MTUgMyAxNCAzQzE3LjAzODUgMyAxOS41IDUuNDYxNDcgMTkuNSA4LjVaTTcgMjAuNjQyOUM3IDIxLjU4NjIgNi45MTk4NyAyMS41IDcuNDU1ODggMjEuNUgyMS4wNDQxQzIxLjU4MDEgMjEuNSAyMS41IDIxLjU4NjIgMjEuNSAyMC42NDI5QzIxLjUgMTguMzU0NyAxOC4xOTYgMTcgMTQuMjUgMTdDMTAuMzA0IDE3IDcgMTguMzU0NyA3IDIwLjY0MjlaTTUgMjAuNjQyOUM1IDE2Ljc2MjYgOS4yOTg5MiAxNSAxNC4yNSAxNUMxOS4yMDExIDE1IDIzLjUgMTYuNzYyNiAyMy41IDIwLjY0MjlDMjMuNSAyMi42NTkzIDIyLjcxODkgMjMuNSAyMS4wNDQxIDIzLjVINy40NTU4OEM1Ljc4MTExIDIzLjUgNSAyMi42NTkzIDUgMjAuNjQyOVoiLz4mI3hhOzwvc3ZnPg==;fontFamily=VK Sans Display;spacing=-7;fontColor=#212121;fontSize=16;" parent="1" vertex="1">
          <mxGeometry x="227.73000000000002" y="429" width="40" height="40" as="geometry" />
        </mxCell>
        <mxCell id="9j2e3ir7Lk6FHDookw-K-14" value="" style="shape=image;verticalLabelPosition=bottom;labelBackgroundColor=default;verticalAlign=top;aspect=fixed;imageAspect=0;image=data:image/svg+xml,PHN2ZyB4bWxucz0iaHR0cDovL3d3dy53My5vcmcvMjAwMC9zdmciIGZpbGw9Im5vbmUiIHZpZXdCb3g9IjAgMCAyOCAyOCIgaGVpZ2h0PSIyOCIgd2lkdGg9IjI4Ij4mI3hhOzxwYXRoIGZpbGw9IiNGRkEzODEiIGQ9Ik0xOSA2LjgwMDA1QzE5LjY2MjcgNi44MDAwNSAyMC4yIDcuMzM3MzEgMjAuMiA4LjAwMDA1TDIwLjIgMjRDMjAuMiAyNC42NjI4IDE5LjY2MjcgMjUuMjAwMSAxOSAyNS4yMDAxQzE4LjMzNzIgMjUuMjAwMSAxNy44IDI0LjY2MjggMTcuOCAyNEwxNy44IDguMDAwMDVDMTcuOCA3LjMzNzMxIDE4LjMzNzIgNi44MDAwNSAxOSA2LjgwMDA1Wk0xNS4yIDEyQzE1LjIgMTEuMzM3MyAxNC42NjI3IDEwLjggMTQgMTAuOEMxMy4zMzcyIDEwLjggMTIuOCAxMS4zMzczIDEyLjggMTJMMTIuOCAyNEMxMi44IDI0LjY2MjggMTMuMzM3MiAyNS4yMDAxIDE0IDI1LjIwMDFDMTQuNjYyNyAyNS4yMDAxIDE1LjIgMjQuNjYyOCAxNS4yIDI0TDE1LjIgMTJaTTguOTk5OTkgMTUuOEM5LjY2MjczIDE1LjggMTAuMiAxNi4zMzczIDEwLjIgMTdMMTAuMiAyNEMxMC4yIDI0LjY2MjggOS42NjI3MyAyNS4yIDguOTk5OTkgMjUuMkM4LjMzNzI1IDI1LjIgNy43OTk5OSAyNC42NjI4IDcuNzk5OTkgMjRMNy43OTk5OSAxN0M3Ljc5OTk5IDE2LjMzNzMgOC4zMzcyNSAxNS44IDguOTk5OTkgMTUuOFpNMy45OTk5OSAxOS44QzQuNjYyNzMgMTkuOCA1LjE5OTk5IDIwLjMzNzMgNS4xOTk5OSAyMUw1LjE5OTk5IDI0QzUuMTk5OTkgMjQuNjYyOCA0LjY2MjczIDI1LjIgMy45OTk5OSAyNS4yQzMuMzM3MjUgMjUuMiAyLjc5OTk5IDI0LjY2MjggMi43OTk5OSAyNFYyMUMyLjc5OTk5IDIwLjMzNzMgMy4zMzcyNSAxOS44IDMuOTk5OTkgMTkuOFoiIGNsaXAtcnVsZT0iZXZlbm9kZCIgZmlsbC1ydWxlPSJldmVub2RkIi8+JiN4YTs8cGF0aCBmaWxsPSIjRjNGNEY3IiBkPSJNMjUuMiA0LjAwMDA1QzI1LjIgMy4zMzczMSAyNC42NjI3IDIuODAwMDUgMjQgMi44MDAwNUMyMy4zMzcyIDIuODAwMDUgMjIuOCAzLjMzNzMxIDIyLjggNC4wMDAwNVYyNEMyMi44IDI0LjY2MjggMjMuMzM3MiAyNS4yMDAxIDI0IDI1LjIwMDFDMjQuNjYyNyAyNS4yMDAxIDI1LjIgMjQuNjYyOCAyNS4yIDI0TDI1LjIgNC4wMDAwNVoiLz4mI3hhOzwvc3ZnPg==;" parent="1" vertex="1">
          <mxGeometry x="136" y="253" width="40" height="40" as="geometry" />
        </mxCell>
        <mxCell id="9j2e3ir7Lk6FHDookw-K-17" value="" style="shape=image;verticalLabelPosition=bottom;labelBackgroundColor=default;verticalAlign=top;aspect=fixed;imageAspect=0;image=data:image/svg+xml,PHN2ZyB4bWxucz0iaHR0cDovL3d3dy53My5vcmcvMjAwMC9zdmciIGZpbGw9Im5vbmUiIHZpZXdCb3g9IjAgMCAyOCAyOCIgaGVpZ2h0PSIyOCIgd2lkdGg9IjI4Ij4mI3hhOzxwYXRoIGZpbGw9IiNEQjcwOTMiIGQ9Ik04Ljk5OTk5IDE1LjhDOS42NjI3MyAxNS44IDEwLjIgMTYuMzM3MyAxMC4yIDE3TDEwLjIgMjRDMTAuMiAyNC42NjI4IDkuNjYyNzMgMjUuMiA4Ljk5OTk5IDI1LjJDOC4zMzcyNSAyNS4yIDcuNzk5OTkgMjQuNjYyOCA3Ljc5OTk5IDI0TDcuNzk5OTkgMTdDNy43OTk5OSAxNi4zMzczIDguMzM3MjUgMTUuOCA4Ljk5OTk5IDE1LjhaTTMuOTk5OTkgMTkuOEM0LjY2MjczIDE5LjggNS4xOTk5OSAyMC4zMzczIDUuMTk5OTkgMjFMNS4xOTk5OSAyNEM1LjE5OTk5IDI0LjY2MjggNC42NjI3MyAyNS4yIDMuOTk5OTkgMjUuMkMzLjMzNzI1IDI1LjIgMi43OTk5OSAyNC42NjI4IDIuNzk5OTkgMjRWMjFDMi43OTk5OSAyMC4zMzczIDMuMzM3MjUgMTkuOCAzLjk5OTk5IDE5LjhaIiBjbGlwLXJ1bGU9ImV2ZW5vZGQiIGZpbGwtcnVsZT0iZXZlbm9kZCIvPiYjeGE7PHBhdGggZmlsbD0iI0YzRjRGNyIgZD0iTTI1LjIgNC4wMDAwNUMyNS4yIDMuMzM3MzEgMjQuNjYyNyAyLjgwMDA1IDI0IDIuODAwMDVDMjMuMzM3MiAyLjgwMDA1IDIyLjggMy4zMzczMSAyMi44IDQuMDAwMDVWMjRDMjIuOCAyNC42NjI4IDIzLjMzNzIgMjUuMjAwMSAyNCAyNS4yMDAxQzI0LjY2MjcgMjUuMjAwMSAyNS4yIDI0LjY2MjggMjUuMiAyNEwyNS4yIDQuMDAwMDVaIi8+JiN4YTs8cGF0aCBmaWxsPSIjRjNGNEY3IiBkPSJNMTkgNi44MDAwNUMxOS42NjI3IDYuODAwMDUgMjAuMiA3LjMzNzMxIDIwLjIgOC4wMDAwNUwyMC4yIDI0QzIwLjIgMjQuNjYyOCAxOS42NjI3IDI1LjIwMDEgMTkgMjUuMjAwMUMxOC4zMzcyIDI1LjIwMDEgMTcuOCAyNC42NjI4IDE3LjggMjRMMTcuOCA4LjAwMDA1QzE3LjggNy4zMzczMSAxOC4zMzcyIDYuODAwMDUgMTkgNi44MDAwNVoiLz4mI3hhOzxwYXRoIGZpbGw9IiNGM0Y0RjciIGQ9Ik0xNS4yIDEyQzE1LjIgMTEuMzM3MyAxNC42NjI3IDEwLjggMTQgMTAuOEMxMy4zMzcyIDEwLjggMTIuOCAxMS4zMzczIDEyLjggMTJWMjRDMTIuOCAyNC42NjI4IDEzLjMzNzIgMjUuMjAwMSAxNCAyNS4yMDAxQzE0LjY2MjcgMjUuMjAwMSAxNS4yIDI0LjY2MjggMTUuMiAyNEwxNS4yIDEyWiIvPiYjeGE7PC9zdmc+;" parent="1" vertex="1">
          <mxGeometry x="195.73000000000002" y="427" width="40" height="40" as="geometry" />
        </mxCell>
        <mxCell id="9j2e3ir7Lk6FHDookw-K-23" value="" style="endArrow=open;html=1;fontFamily=VK Sans Display;fontColor=#212121;rounded=1;strokeColor=#7C8A9A;endFill=0;strokeWidth=2;arcSize=8;exitX=0.5;exitY=0;exitDx=0;exitDy=0;edgeStyle=orthogonalEdgeStyle;entryX=0;entryY=0.5;entryDx=0;entryDy=0;" parent="1" source="9j2e3ir7Lk6FHDookw-K-11" target="9j2e3ir7Lk6FHDookw-K-2" edge="1">
          <mxGeometry width="50" height="50" relative="1" as="geometry">
            <mxPoint x="186.27999999999997" y="227" as="sourcePoint" />
            <mxPoint x="181.385" y="139.88" as="targetPoint" />
          </mxGeometry>
        </mxCell>
        <mxCell id="9j2e3ir7Lk6FHDookw-K-24" value="" style="endArrow=open;html=1;fontFamily=VK Sans Display;fontColor=#212121;strokeColor=#7C8A9A;endFill=0;strokeWidth=2;arcSize=8;rounded=0;entryX=0;entryY=0.25;entryDx=0;entryDy=0;" parent="1" edge="1">
          <mxGeometry width="50" height="50" relative="1" as="geometry">
            <mxPoint x="149" y="113" as="sourcePoint" />
            <mxPoint x="212.73000000000002" y="112.625" as="targetPoint" />
            <Array as="points" />
          </mxGeometry>
        </mxCell>
        <mxCell id="9j2e3ir7Lk6FHDookw-K-25" value="" style="endArrow=none;html=1;fontFamily=VK Sans Display;fontColor=#212121;rounded=1;strokeColor=#7C8A9A;endFill=0;arcsize=8;startArrow=open;startFill=0;strokeWidth=2;arcSize=8;edgeStyle=orthogonalEdgeStyle;entryX=0.5;entryY=0;entryDx=0;entryDy=0;" parent="1" target="9j2e3ir7Lk6FHDookw-K-12" edge="1">
          <mxGeometry width="50" height="50" relative="1" as="geometry">
            <mxPoint x="248" y="184" as="sourcePoint" />
            <mxPoint x="231.73000000000002" y="423" as="targetPoint" />
            <Array as="points">
              <mxPoint x="248" y="429" />
            </Array>
          </mxGeometry>
        </mxCell>
        <mxCell id="9j2e3ir7Lk6FHDookw-K-26" value="Origin&#xa;servers" style="shape=image;verticalLabelPosition=bottom;labelBackgroundColor=default;verticalAlign=bottom;aspect=fixed;imageAspect=0;image=data:image/svg+xml,PHN2ZyB4bWxucz0iaHR0cDovL3d3dy53My5vcmcvMjAwMC9zdmciIGlkPSJzdmcxIiB2ZXJzaW9uPSIxLjEiIGZpbGw9Im5vbmUiIHZpZXdCb3g9IjAgMCA0OC4zMzMzMDIgMjkuNjY2NTk5IiBoZWlnaHQ9IjI5LjY2NjU5OSIgd2lkdGg9IjQ4LjMzMzMwMiI+JiN4YTsgIDxkZWZzIGlkPSJkZWZzMSIvPiYjeGE7ICAmI3hhOyAgPHBhdGggaWQ9InBhdGgxIiBmaWxsPSIjMDA3N2ZmIiBkPSJNIDAsMTAuMzMzMyBDIDAsNy4wNjY0IDAsNC40MzI5IDAuNjM1OCwzLjE4NTEgMS4xOTUwNiwyLjA4NzQgMi4wODc0NCwxLjE5NTEgMy4xODUwNiwwLjYzNTggMy4zMTA5MiwwLjU3MTcgMy40MjAzNywwLjUxNCAzLjUxODc3LDAuNDYyMiAzLjc0OTQsMC4zNDA2IDMuOTE5MzksMC4yNTExIDQuMDk4MDcsMC4xODUxIDQuNTk4OTgsMCA1LjE2ODI1LDAgNy4zMzMzMywwIEggMTIgYyAyLjE2NTEsMCAyLjczNDQsMCAzLjIzNTMsMC4xODUxIDAuMTc4NiwwLjA2NiAwLjM0ODYsMC4xNTU1IDAuNTc5MywwLjI3NyAwLjA5ODMsMC4wNTE5IDAuMjA3OCwwLjEwOTYgMC4zMzM3LDAuMTczNyAxLjA5NzYsMC41NTkzIDEuOTksMS40NTE2IDIuNTQ5MiwyLjU0OTMgMC4xNzU3LDAuMzQ0NyAwLjMwMjgsMC43OTUxIDAuMzk0OCwxLjMzNTQgMC4wMDE5LC03ZS00IDAuMDAzOCwtMC4wMDE0IDAuMDA1OCwtMC4wMDIxIDAuNTAwOSwtMC4xODUxIDEuMDcwMiwtMC4xODUxIDMuMjM1MiwtMC4xODUxIEggMjcgYyAxLjEwNDUsMCAxLjc5MzYsMCAyLjI3MDMsMC4wMjQ2IDAuMDg5MiwtMC40Njg2IDAuMjA3OCwtMC44NjMzIDAuMzY1NSwtMS4xNzI4IDAuNTU5MywtMS4wOTc3IDEuNDUxNiwtMS45OSAyLjU0OTMsLTIuNTQ5MyBDIDMyLjMxMDksMC41NzE3IDMyLjQyMDQsMC41MTQgMzIuNTE4OCwwLjQ2MjIgMzIuNzQ5NCwwLjM0MDYgMzIuOTE5NCwwLjI1MTEgMzMuMDk4MSwwLjE4NTEgMzMuNTk5LDAgMzQuMTY4MywwIDM2LjMzMzMsMCBIIDQxIGMgMi4xNjUxLDAgMi43MzQ0LDAgMy4yMzUzLDAuMTg1MSAwLjE3ODYsMC4wNjYgMC4zNDg2LDAuMTU1NSAwLjU3OTMsMC4yNzcgMC4wOTgzLDAuMDUxOSAwLjIwNzgsMC4xMDk2IDAuMzMzNywwLjE3MzcgMS4wOTc2LDAuNTU5MyAxLjk5LDEuNDUxNiAyLjU0OTIsMi41NDkzIDAuNjM1OCwxLjI0NzggMC42MzU4LDMuODgxMyAwLjYzNTgsNy4xNDgyIFYgMTUgYyAwLDMuMjY3IDAsNS45MDA1IC0wLjYzNTgsNy4xNDgzIC0wLjU1OTIsMS4wOTc2IC0xLjQ1MTYsMS45OSAtMi41NDkyLDIuNTQ5MiAtMC4xMjU2LDAuMDY0IC0wLjIzNDgsMC4xMjE1IC0wLjMzMywwLjE3MzMgLTAuMjMwNiwwLjEyMTUgLTAuNDAxNCwwLjIxMTUgLTAuNTgsMC4yNzc1IC0wLjUwMDksMC4xODUgLTEuMDcwMiwwLjE4NSAtMy4yMzUzLDAuMTg1IGggLTQuNjY2NyBjIC0xLjEwNDQsMCAtMS43OTM2LDAgLTIuMjcwMywtMC4wMjQ1IC0wLjA4OTIsMC40Njg1IC0wLjIwNzgsMC44NjMzIC0wLjM2NTUsMS4xNzI4IC0wLjU1OTIsMS4wOTc2IC0xLjQ1MTYsMS45OSAtMi41NDkyLDIuNTQ5MiAtMC4xMjU3LDAuMDY0MSAtMC4yMzUxLDAuMTIxNyAtMC4zMzM0LDAuMTczNSAtMC4yMzA2LDAuMTIxNSAtMC40MDEsMC4yMTEzIC0wLjU3OTYsMC4yNzczIC0wLjUwMDksMC4xODUgLTEuMDcwMiwwLjE4NSAtMy4yMzUzLDAuMTg1IGggLTQuNjY2NyBjIC0yLjE2NSwwIC0yLjczNDMsMCAtMy4yMzUyLC0wLjE4NSAtMC4xNzg3LC0wLjA2NiAtMC4zNDg3LC0wLjE1NTYgLTAuNTc5MywtMC4yNzcxIC0wLjA5ODQsLTAuMDUxOCAtMC4yMDc5LC0wLjEwOTUgLTAuMzMzNywtMC4xNzM3IC0xLjA5NzcsLTAuNTU5MiAtMS45OSwtMS40NTE2IC0yLjU0OTMsLTIuNTQ5MiAtMC4xNzU2LC0wLjM0NDcgLTAuMzAyOCwtMC43OTUxIC0wLjM5NDgsLTEuMzM1NSAtMC4wMDE5LDdlLTQgLTAuMDAzOCwwLjAwMTUgLTAuMDA1NywwLjAwMjIgLTAuNTAwOSwwLjE4NSAtMS4wNzAyLDAuMTg1IC0zLjIzNTMsMC4xODUgSCA3LjMzMzMzIGMgLTIuMTY1MDgsMCAtMi43MzQzNSwwIC0zLjIzNTI2LC0wLjE4NSBDIDMuOTE5MzksMjUuMDgyMyAzLjc0OTQxLDI0Ljk5MjcgMy41MTg3OCwyNC44NzEyIDMuNDIwNDEsMjQuODE5NCAzLjMxMDg4LDI0Ljc2MTYgMy4xODUwNiwyNC42OTc1IDIuMDg3NDQsMjQuMTM4MyAxLjE5NTA2LDIzLjI0NTkgMC42MzU4LDIyLjE0ODMgMCwyMC45MDA1IDAsMTguMjY3IDAsMTUgWiBtIDE1LjAzNywxMi40NzAxIGMgLTAuMDE5LC0wLjUzMDMgLTAuMDI4MiwtMS4wOTczIC0wLjAzMjcsLTEuNjk1MSAtMC4xMDU1LDAuMDM3OCAtMC4yMTkyLDAuMDU4NCAtMC4zMzc2LDAuMDU4NCBIIDQuNjY2NjYgYyAtMC41NTIyOSwwIC0xLC0wLjQ0NzcgLTEsLTEgMCwtMC41NTIzIDAuNDQ3NzEsLTEgMSwtMSBIIDE0LjY2NjcgYyAwLjExNjgsMCAwLjIyOSwwLjAyIDAuMzMzMywwLjA1NjkgdiAtMi4xMTM4IGMgLTAuMTA0MywwLjAzNjggLTAuMjE2NSwwLjA1NjkgLTAuMzMzMywwLjA1NjkgSCA0LjY2NjY2IGMgLTAuNTUyMjksMCAtMSwtMC40NDc3IC0xLC0xIDAsLTAuNTUyMyAwLjQ0NzcxLC0xIDEsLTEgSCAxNC42NjY3IGMgMC4xMTY4LDAgMC4yMjksMC4wMiAwLjMzMzMsMC4wNTY5IHYgLTAuNTU3IEMgMTUsMTEuMzk5NyAxNSw4Ljc2NjIgMTUuNjM1OCw3LjUxODQgMTUuOTkxOCw2LjgxOTcgMTYuNDgyNyw2LjIwNDMgMTcuMDc1Niw1LjcwNDkgMTcuMDc0OSw1LjY5NjUgMTcuMDc0Myw1LjY4ODMgMTcuMDczNiw1LjY4MDEgMTcuMDA1Miw0Ljg0MjcgMTYuODgzLDQuNDQyMyAxNi43NDg1LDQuMTc4MiAxNi4zOTg5LDMuNDkyMiAxNS44NDEyLDIuOTM0NCAxNS4xNTUyLDIuNTg0OSAxNC44OTEsMi40NTAzIDE0LjQ5MDYsMi4zMjgxIDEzLjY1MzIsMi4yNTk3IDEzLjM1MzQsMi4yMzUyIDEzLjI2MzksMi4yMTkgMTMuMjA0NywyLjIwODMgMTMuMDkzNiwyLjE4ODIgMTMuMDg5NiwyLjE4NzUgMTIsMi4xODc1IEggNy4zMzMzMyBjIC0xLjA4OTU2LDAgLTEuMDkzNTcsN2UtNCAtMS4yMDQ3MSwwLjAyMDggQyA2LjA2OTQ2LDIuMjE5IDUuOTc5OTQsMi4yMzUyIDUuNjgwMTQsMi4yNTk3IDQuODQyNywyLjMyODEgNC40NDIzLDIuNDUwMyA0LjE3ODE2LDIuNTg0OSAzLjQ5MjE1LDIuOTM0NCAyLjkzNDQxLDMuNDkyMiAyLjU4NDg3LDQuMTc4MiAyLjQ1MDI5LDQuNDQyMyAyLjMyODEzLDQuODQyNyAyLjI1OTcxLDUuNjgwMSAyLjE4OTIsNi41NDMxIDIuMTg3NSw4LjY2MzggMi4xODc1LDEwLjMzMzMgViAxNSBjIDAsMS42Njk2IDAuMDAxNywzLjc5MDIgMC4wNzIyMSw0LjY1MzIgMC4wNjg0MiwwLjgzNzQgMC4xOTA1OCwxLjIzNzggMC4zMjUxNiwxLjUwMiAwLjM0OTU0LDAuNjg2IDAuOTA3MjgsMS4yNDM3IDEuNTkzMjksMS41OTMzIDAuMjY0MTQsMC4xMzQ1IDAuNjY0NTQsMC4yNTY3IDEuNTAxOTgsMC4zMjUxIDAuMjk5OCwwLjAyNDUgMC4zODkzMiwwLjA0MDcgMC40NDg0OCwwLjA1MTQgMC4xMTExNCwwLjAyMDEgMC4xMTUxNCwwLjAyMDggMS4yMDQ3MSwwLjAyMDggSCAxMiBjIDEuMDg5NiwwIDEuMDkzNiwtN2UtNCAxLjIwNDcsLTAuMDIwOCAwLjA1OTIsLTAuMDEwNyAwLjE0ODcsLTAuMDI2OSAwLjQ0ODUsLTAuMDUxNCAwLjcyMTcsLTAuMDU4OSAxLjExODgsLTAuMTU3OCAxLjM4MzgsLTAuMjcwMiB6IG0gMTkuMjUwMywwLjIzMDYgYyAwLjExOTIsMC4wMTQ2IDAuMjQ5NiwwLjAyNzkgMC4zOTI4LDAuMDM5NiAwLjI5OTgsMC4wMjQ1IDAuMzg5NCwwLjA0MDcgMC40NDg1LDAuMDUxNCAwLjExMTIsMC4wMjAxIDAuMTE1MiwwLjAyMDggMS4yMDQ3LDAuMDIwOCBIIDQxIGMgMS4wODk2LDAgMS4wOTM2LC03ZS00IDEuMjA0NywtMC4wMjA4IDAuMDU5MiwtMC4wMTA3IDAuMTQ4NywtMC4wMjY5IDAuNDQ4NSwtMC4wNTE0IDAuODM3NCwtMC4wNjg0IDEuMjM3OCwtMC4xOTA2IDEuNTAyLC0wLjMyNTEgMC42ODYsLTAuMzQ5NiAxLjI0MzcsLTAuOTA3MyAxLjU5MzMsLTEuNTkzMyAwLjEzNDUsLTAuMjY0MiAwLjI1NjcsLTAuNjY0NiAwLjMyNTEsLTEuNTAyIDAuMDcwNSwtMC44NjMgMC4wNzIyLC0yLjk4MzYgMC4wNzIyLC00LjY1MzIgdiAtNC42NjY3IGMgMCwtMS42Njk1IC0wLjAwMTcsLTMuNzkwMiAtMC4wNzIyLC00LjY1MzIgQyA0Ni4wMDUyLDQuODQyNyA0NS44ODMsNC40NDIzIDQ1Ljc0ODUsNC4xNzgyIDQ1LjM5ODksMy40OTIyIDQ0Ljg0MTIsMi45MzQ0IDQ0LjE1NTIsMi41ODQ5IDQzLjg5MSwyLjQ1MDMgNDMuNDkwNiwyLjMyODEgNDIuNjUzMiwyLjI1OTcgNDIuMzUzNCwyLjIzNTIgNDIuMjYzOSwyLjIxOSA0Mi4yMDQ3LDIuMjA4MyA0Mi4wOTM2LDIuMTg4MiA0Mi4wODk2LDIuMTg3NSA0MSwyLjE4NzUgaCAtNC42NjY3IGMgLTEuMDg5NSwwIC0xLjA5MzUsN2UtNCAtMS4yMDQ3LDAuMDIwOCAtMC4wNTkxLDAuMDEwNyAtMC4xNDg3LDAuMDI2OSAtMC40NDg1LDAuMDUxNCAtMC44Mzc0LDAuMDY4NCAtMS4yMzc4LDAuMTkwNiAtMS41MDE5LDAuMzI1MiAtMC42ODYsMC4zNDk1IC0xLjI0MzgsMC45MDczIC0xLjU5MzMsMS41OTMzIC0wLjA5NjQsMC4xODkxIC0wLjE4NjQsMC40NDgyIC0wLjI1NDksMC44ODc2IDEuMDE0NCwwLjU2MjggMS44Mzk1LDEuNDE2MiAyLjM2NzUsMi40NTI2IDAuNjM1OCwxLjI0NzggMC42MzU4LDMuODgxMyAwLjYzNTgsNy4xNDgyIHYgMC41MDAxIGggOS4zMzM0IGMgMC41NTIyLDAgMSwwLjQ0NzcgMSwxIDAsMC41NTIzIC0wLjQ0NzgsMSAtMSwxIGggLTkuMzMzNCB2IDIgaCA5LjMzMzQgYyAwLjU1MjIsMCAxLDAuNDQ3NyAxLDEgMCwwLjU1MjMgLTAuNDQ3OCwxIC0xLDEgaCAtOS4zMzgxIGMgLTAuMDA1MywwLjY2MzYgLTAuMDE2OCwxLjI4ODcgLTAuMDQxMywxLjg2NzMgeiBNIDMuNjY2NjYsNS4xNjY3IGMgMCwtMC41NTIzIDAuNDQ3NzEsLTEgMSwtMSBIIDE0LjY2NjcgYyAwLjU1MjIsMCAxLDAuNDQ3NyAxLDEgMCwwLjU1MjMgLTAuNDQ3OCwxIC0xLDEgSCA0LjY2NjY2IGMgLTAuNTUyMjksMCAtMSwtMC40NDc3IC0xLC0xIHogbSAyOS4wMDAwNCwwIGMgMCwtMC41NTIzIDAuNDQ3NywtMSAxLC0xIGggMTAgYyAwLjU1MjIsMCAxLDAuNDQ3NyAxLDEgMCwwLjU1MjMgLTAuNDQ3OCwxIC0xLDEgaCAtMTAgYyAtMC41NTIzLDAgLTEsLTAuNDQ3NyAtMSwtMSB6IE0gMjIuMzMzMyw2LjUyMDggSCAyNyBjIDEuMDg5NiwwIDEuMDkzNiw3ZS00IDEuMjA0NywwLjAyMDggMC4wNTkyLDAuMDEwNyAwLjE0ODcsMC4wMjY5IDAuNDQ4NSwwLjA1MTQgMC44Mzc0LDAuMDY4NCAxLjIzNzgsMC4xOTA2IDEuNTAyLDAuMzI1MiAwLjY4NiwwLjM0OTUgMS4yNDM3LDAuOTA3MyAxLjU5MzMsMS41OTMzIDAuMTM0NSwwLjI2NDEgMC4yNTY3LDAuNjY0NSAwLjMyNTEsMS41MDIgMC4wNzA1LDAuODYyOSAwLjA3MjIsMi45ODM2IDAuMDcyMiw0LjY1MzEgdiA0LjY2NjcgYyAwLDEuNjY5NiAtMC4wMDE3LDMuNzkwMiAtMC4wNzIyLDQuNjUzMiAtMC4wNjg0LDAuODM3NCAtMC4xOTA2LDEuMjM3OCAtMC4zMjUxLDEuNTAyIC0wLjM0OTYsMC42ODYgLTAuOTA3MywxLjI0MzcgLTEuNTkzMywxLjU5MzMgLTAuMjY0MiwwLjEzNDYgLTAuNjY0NiwwLjI1NjcgLTEuNTAyLDAuMzI1MSAtMC4yOTk4LDAuMDI0NSAtMC4zODkzLDAuMDQwNyAtMC40NDg1LDAuMDUxNCAtMC4xMTExLDAuMDIwMSAtMC4xMTUxLDAuMDIwOCAtMS4yMDQ3LDAuMDIwOCBoIC00LjY2NjcgYyAtMS4wODk1LDAgLTEuMDkzNSwtN2UtNCAtMS4yMDQ3LC0wLjAyMDggLTAuMDU5MSwtMC4wMTA3IC0wLjE0ODcsLTAuMDI2OSAtMC40NDg1LC0wLjA1MTQgLTAuODM3NCwtMC4wNjg0IC0xLjIzNzgsLTAuMTkwNSAtMS41MDE5LC0wLjMyNTEgLTAuNjg2LC0wLjM0OTYgLTEuMjQzOCwtMC45MDczIC0xLjU5MzMsLTEuNTkzMyAtMC4xMzQ2LC0wLjI2NDIgLTAuMjU2OCwtMC42NjQ2IC0wLjMyNTIsLTEuNTAyIC0wLjA3MDUsLTAuODYzIC0wLjA3MjIsLTIuOTgzNiAtMC4wNzIyLC00LjY1MzIgdiAtNC42NjY3IGMgMCwtMS42Njk1IDAuMDAxNywtMy43OTAyIDAuMDcyMiwtNC42NTMxIDAuMDY4NCwtMC44Mzc1IDAuMTkwNiwtMS4yMzc5IDAuMzI1MiwtMS41MDIgMC4zNDk1LC0wLjY4NiAwLjkwNzMsLTEuMjQzOCAxLjU5MzMsLTEuNTkzMyAwLjI2NDEsLTAuMTM0NiAwLjY2NDUsLTAuMjU2OCAxLjUwMTksLTAuMzI1MiAwLjI5OTgsLTAuMDI0NSAwLjM4OTQsLTAuMDQwNyAwLjQ0ODUsLTAuMDUxNCAwLjExMTIsLTAuMDIwMSAwLjExNTIsLTAuMDIwOCAxLjIwNDcsLTAuMDIwOCB6IE0gMTguNjY2Nyw5LjUgYyAwLC0wLjU1MjMgMC40NDc3LC0xIDEsLTEgaCAxMCBjIDAuNTUyMiwwIDEsMC40NDc3IDEsMSAwLDAuNTUyMyAtMC40NDc4LDEgLTEsMSBoIC0xMCBjIC0wLjU1MjMsMCAtMSwtMC40NDc3IC0xLC0xIHogbSAxLDEwIGMgLTAuNTUyMywwIC0xLDAuNDQ3NyAtMSwxIDAsMC41NTIzIDAuNDQ3NywxIDEsMSBoIDEwIGMgMC41NTIyLDAgMSwtMC40NDc3IDEsLTEgMCwtMC41NTIzIC0wLjQ0NzgsLTEgLTEsLTEgeiBtIC0xLDUgYyAwLC0wLjU1MjMgMC40NDc3LC0xIDEsLTEgaCAxMCBjIDAuNTUyMiwwIDEsMC40NDc3IDEsMSAwLDAuNTUyMyAtMC40NDc4LDEgLTEsMSBoIC0xMCBjIC0wLjU1MjMsMCAtMSwtMC40NDc3IC0xLC0xIHoiIGNsaXAtcnVsZT0iZXZlbm9kZCIgZmlsbC1ydWxlPSJldmVub2RkIi8+JiN4YTs8L3N2Zz4=;fontFamily=VK Sans Display;fontSize=16;" parent="1" vertex="1">
          <mxGeometry x="587.64" y="97" width="68" height="42.42" as="geometry" />
        </mxCell>
        <mxCell id="9j2e3ir7Lk6FHDookw-K-27" value="Servers&#xa;load" style="shape=image;verticalLabelPosition=bottom;labelBackgroundColor=default;verticalAlign=top;imageAspect=0;image=data:image/svg+xml,PHN2ZyB4bWxucz0iaHR0cDovL3d3dy53My5vcmcvMjAwMC9zdmciIGZpbGw9Im5vbmUiIHZpZXdCb3g9IjAgMCAyOCAyOCIgaGVpZ2h0PSIyOCIgd2lkdGg9IjI4Ij4mI3hhOzxwYXRoIGZpbGw9IiM2QkIxRkYiIGQ9Ik00LjMzMzM0IDExLjY2NjZDNC4zMzMzNCA4LjM5OTY3IDQuMzMzMzQgNS43NjYxOSA0Ljk2OTE0IDQuNTE4MzdDNS41Mjg0IDMuNDIwNzYgNi40MjA3OSAyLjUyODM3IDcuNTE4NCAxLjk2OTExQzcuNjQ0MjcgMS45MDQ5NyA3Ljc1MzcxIDEuODQ3MzEgNy44NTIxMSAxLjc5NTQ2QzguMDgyNzQgMS42NzM5NSA4LjI1MjczIDEuNTg0MzggOC40MzE0MiAxLjUxODM3QzguOTMyMzIgMS4zMzMzMSA5LjUwMTYgMS4zMzMzMSAxMS42NjY3IDEuMzMzMzFIMTYuMzMzM0MxOC40OTg0IDEuMzMzMzEgMTkuMDY3NyAxLjMzMzMxIDE5LjU2ODYgMS41MTgzN0MxOS43NDczIDEuNTg0MzggMTkuOTE3MyAxLjY3Mzk5IDIwLjE0OCAxLjc5NTVDMjAuMjQ2NCAxLjg0NzM0IDIwLjM1NTggMS45MDQ5OSAyMC40ODE2IDEuOTY5MTFDMjEuNTc5MiAyLjUyODM3IDIyLjQ3MTYgMy40MjA3NiAyMy4wMzA5IDQuNTE4MzdDMjMuNjY2NyA1Ljc2NjE5IDIzLjY2NjcgOC4zOTk2NyAyMy42NjY3IDExLjY2NjZWMTYuMzMzM0MyMy42NjY3IDE5LjYwMDMgMjMuNjY2NyAyMi4yMzM4IDIzLjAzMDkgMjMuNDgxNkMyMi40NzE2IDI0LjU3OTIgMjEuNTc5MiAyNS40NzE2IDIwLjQ4MTYgMjYuMDMwOEMyMC4zNTU5IDI2LjA5NDkgMjAuMjQ2NSAyNi4xNTI1IDIwLjE0ODIgMjYuMjA0M0wyMC4xNDc5IDI2LjIwNDVDMTkuOTE3MyAyNi4zMjYgMTkuNzQ3MyAyNi40MTU2IDE5LjU2ODYgMjYuNDgxNkMxOS4wNjc3IDI2LjY2NjYgMTguNDk4NCAyNi42NjY2IDE2LjMzMzMgMjYuNjY2NkgxMS42NjY3QzkuNTAxNiAyNi42NjY2IDguOTMyMzIgMjYuNjY2NiA4LjQzMTQyIDI2LjQ4MTZDOC4yNTI3MyAyNi40MTU2IDguMDgyNjIgMjYuMzI2IDcuODUyIDI2LjIwNDRDNy43NTM2MyAyNi4xNTI2IDcuNjQ0MjIgMjYuMDk1IDcuNTE4NCAyNi4wMzA4QzYuNDIwNzkgMjUuNDcxNiA1LjUyODQgMjQuNTc5MiA0Ljk2OTE0IDIzLjQ4MTZDNC4zMzMzNCAyMi4yMzM4IDQuMzMzMzQgMTkuNjAwMyA0LjMzMzM0IDE2LjMzMzNWMTEuNjY2NlpNOCA2LjVDOCA1Ljk0NzcyIDguNDQ3NzIgNS41IDkgNS41SDE5QzE5LjU1MjMgNS41IDIwIDUuOTQ3NzIgMjAgNi41QzIwIDcuMDUyMjggMTkuNTUyMyA3LjUgMTkgNy41SDlDOC40NDc3MiA3LjUgOCA3LjA1MjI4IDggNi41Wk05IDE2LjVDOC40NDc3MiAxNi41IDggMTYuOTQ3NyA4IDE3LjVDOCAxOC4wNTIzIDguNDQ3NzIgMTguNSA5IDE4LjVIMTlDMTkuNTUyMyAxOC41IDIwIDE4LjA1MjMgMjAgMTcuNUMyMCAxNi45NDc3IDE5LjU1MjMgMTYuNSAxOSAxNi41SDlaTTggMjEuNUM4IDIwLjk0NzcgOC40NDc3MiAyMC41IDkgMjAuNUgxOUMxOS41NTIzIDIwLjUgMjAgMjAuOTQ3NyAyMCAyMS41QzIwIDIyLjA1MjMgMTkuNTUyMyAyMi41IDE5IDIyLjVIOUM4LjQ0NzcyIDIyLjUgOCAyMi4wNTIzIDggMjEuNVoiIGNsaXAtcnVsZT0iZXZlbm9kZCIgZmlsbC1ydWxlPSJldmVub2RkIi8+JiN4YTs8L3N2Zz4=;fontFamily=VK Sans Display;fontSize=16;" parent="1" vertex="1">
          <mxGeometry x="672.36" y="95" width="40" height="40" as="geometry" />
        </mxCell>
        <mxCell id="9j2e3ir7Lk6FHDookw-K-28" value="CDN server" style="shape=image;verticalLabelPosition=bottom;labelBackgroundColor=none;verticalAlign=top;aspect=fixed;imageAspect=0;image=data:image/svg+xml,PHN2ZyB4bWxucz0iaHR0cDovL3d3dy53My5vcmcvMjAwMC9zdmciIGZpbGw9Im5vbmUiIHZpZXdCb3g9IjAgMCAzNiAzNiIgaGVpZ2h0PSIzNiIgd2lkdGg9IjM2Ij4mI3hhOzxwYXRoIGZpbGw9IiMwMDc3RkYiIGQ9Ik00Ljk2OTE0IDguNTE4MzdDNC4zMzMzNCA5Ljc2NjE5IDQuMzMzMzQgMTIuMzk5NyA0LjMzMzM0IDE1LjY2NjZWMjAuMzMzM0M0LjMzMzM0IDIzLjYwMDMgNC4zMzMzNCAyNi4yMzM4IDQuOTY5MTQgMjcuNDgxNkM1LjUyODQgMjguNTc5MiA2LjQyMDc5IDI5LjQ3MTYgNy41MTg0IDMwLjAzMDlDNy42NDQyMiAzMC4wOTUgNy43NTM2MyAzMC4xNTI2IDcuODUyIDMwLjIwNDRDOC4wODI2MiAzMC4zMjYgOC4yNTI3MyAzMC40MTU2IDguNDMxNDIgMzAuNDgxNkM4LjU1NDQ5IDMwLjUyNzEgOC44NTA1NyAzMC41NjYyIDkuMDM2OCAzMC41OTgxQzkuNjgyNTcgMzAuNzA4OCAxMC4yMjUgMzAuMTU0NCAxMC4yMjUgMjkuNDk5MkMxMC4yMjUgMjguODk0MSA5Ljc1ODI3IDI4LjQwNzUgOS4xNzE1IDI4LjI1OTZDOC45NDMzNiAyOC4yMDIxIDguNjI1MSAyOC4xMzk3IDguNTExNSAyOC4wODE4QzcuODI1NSAyNy43MzIyIDcuMjY3NzUgMjcuMTc0NSA2LjkxODIyIDI2LjQ4ODVDNi43ODM2MyAyNi4yMjQ0IDYuNjYxNDcgMjUuODIzOSA2LjU5MzA1IDI0Ljk4NjVDNi41MjI1NCAyNC4xMjM1IDYuNTIwODQgMjIuMDAyOSA2LjUyMDg0IDIwLjMzMzNWMTUuNjY2NkM2LjUyMDg0IDEzLjk5NzEgNi41MjI1NCAxMS44NzY0IDYuNTkzMDUgMTEuMDEzNUM2LjY2MTQ3IDEwLjE3NiA2Ljc4MzYzIDkuNzc1NjEgNi45MTgyMiA5LjUxMTQ3QzcuMjY3NzUgOC44MjU0NyA3LjgyNTUgOC4yNjc3MiA4LjUxMTUgNy45MTgxOEM4Ljc3NTY0IDcuNzgzNiA5LjE3NjA0IDcuNjYxNDQgMTAuMDEzNSA3LjU5MzAyQzEwLjMxMzMgNy41Njg1MyAxMC40MDI4IDcuNTUyMzQgMTAuNDYyIDcuNTQxNjRDMTAuNTczMSA3LjUyMTU0IDEwLjU3NzEgNy41MjA4MSAxMS42NjY3IDcuNTIwODFIMTYuMzMzM0MxNy40MjI5IDcuNTIwODEgMTcuNDI2OSA3LjUyMTU0IDE3LjUzODEgNy41NDE2NEMxNy41OTcyIDcuNTUyMzQgMTcuNjg2NyA3LjU2ODUzIDE3Ljk4NjUgNy41OTMwMkMxOC44MjQgNy42NjE0NCAxOS4yMjQ0IDcuNzgzNiAxOS40ODg1IDcuOTE4MThDMjAuMTc0NSA4LjI2NzcyIDIwLjczMjMgOC44MjU0NyAyMS4wODE4IDkuNTExNDdDMjEuMjE2NCA5Ljc3NTYxIDIxLjMzODUgMTAuMTc2IDIxLjQwNyAxMS4wMTM1QzIxLjQ3NzUgMTEuODc2NCAyMS40NzkyIDEzLjk5NzEgMjEuNDc5MiAxNS42NjY2VjIwLjMzMzNMMjEuNDc4OSAyMi40OTk4QzIxLjQ3ODkgMjMuMTAzOCAyMS45Njg2IDIzLjU5MzUgMjIuNTcyNiAyMy41OTM1QzIzLjE3NjcgMjMuNTkzNSAyMy42NjY0IDIzLjEwNDEgMjMuNjY2NCAyMi41TDIzLjY2NjcgMjAuMzMzM1YxNS42NjY2QzIzLjY2NjcgMTIuMzk5NyAyMy42NjY3IDkuNzY2MTkgMjMuMDMwOSA4LjUxODM3QzIyLjQ3MTYgNy40MjA3NiAyMS41NzkyIDYuNTI4MzcgMjAuNDgxNiA1Ljk2OTExQzIwLjM1NTggNS45MDQ5OSAyMC4yNDY0IDUuODQ3MzQgMjAuMTQ4IDUuNzk1NUMxOS45MTc0IDUuNjczOTkgMTkuNzQ3MyA1LjU4NDM4IDE5LjU2ODYgNS41MTgzN0MxOS4wNjc3IDUuMzMzMzEgMTguNDk4NCA1LjMzMzMxIDE2LjMzMzMgNS4zMzMzMUgxMS42NjY3QzkuNTAxNiA1LjMzMzMxIDguOTMyMzIgNS4zMzMzMSA4LjQzMTQyIDUuNTE4MzdDOC4yNTI3MyA1LjU4NDM4IDguMDgyNzQgNS42NzM5NSA3Ljg1MjEyIDUuNzk1NDZDNy43NTM3MSA1Ljg0NzMxIDcuNjQ0MjcgNS45MDQ5NyA3LjUxODQgNS45NjkxMUM2LjQyMDc5IDYuNTI4MzcgNS41Mjg0IDcuNDIwNzYgNC45NjkxNCA4LjUxODM3Wk05IDkuNUM4LjQ0NzcyIDkuNSA4IDkuOTQ3NzIgOCAxMC41QzggMTEuMDUyMyA4LjQ0NzcyIDExLjUgOSAxMS41SDE5QzE5LjU1MjMgMTEuNSAyMCAxMS4wNTIzIDIwIDEwLjVDMjAgOS45NDc3MiAxOS41NTIzIDkuNSAxOSA5LjVIOVpNOCAyMS41QzggMjAuOTQ3NyA4LjQ0NzcyIDIwLjUgOSAyMC41SDE5QzE5LjU1MjMgMjAuNSAyMCAyMC45NDc3IDIwIDIxLjVDMjAgMjIuMDUyMyAxOS41NTIzIDIyLjUgMTkgMjIuNUg5QzguNDQ3NzIgMjIuNSA4IDIyLjA1MjMgOCAyMS41Wk0xOC4zMjY3IDMyLjQwMDNMMTguMzI3NiAzMi4zOTk0QzE4LjU4MDkgMzIuMTI5IDE4Ljc3MTQgMzEuODQ5MiAxOC44OTMyIDMxLjU1OTRDMTkuMDE0NyAzMS4yNzQ0IDE5LjA3OTkgMzEuMDAwMiAxOS4wNzk5IDMwLjczOTNDMTkuMDc5OSAzMC41MDg1IDE4Ljk5NzggMzAuMzA2NCAxOC44MzM4IDMwLjE0NjdDMTguNjcyOCAyOS45OSAxOC40NzQ3IDI5LjkwOTQgMTguMjUgMjkuOTA5NEMxOC4wMDg4IDI5LjkwOTQgMTcuNzkyOCAyOS45ODI5IDE3LjY1MTkgMzAuMTY4MkMxNy41NDM3IDMwLjMwNzYgMTcuNDU4NSAzMC40ODE2IDE3LjM5MjEgMzAuNjgzNEMxNy4yNTY3IDMxLjA1MTkgMTcuMDYwNyAzMS4zMTk0IDE2LjgxMDIgMzEuNDk5NkMxNi41NjM2IDMxLjY3NjEgMTYuMjU0NyAzMS43Njk3IDE1Ljg3MjEgMzEuNzY5N0MxNS41MjA4IDMxLjc2OTcgMTUuMjIzOSAzMS42ODY4IDE0Ljk3MzYgMzEuNTI3NUMxNC43MjcgMzEuMzcwNyAxNC41Mjk2IDMxLjEzMDQgMTQuMzg2MyAzMC43OTMyQzE0LjI0MzcgMzAuNDU0MiAxNC4xNjc4IDMwLjAxODggMTQuMTY3OCAyOS40Nzk1QzE0LjE2NzggMjguNjcxMyAxNC4zMzg2IDI4LjA3ODQgMTQuNjUyNyAyNy42NzM5QzE0Ljk2ODEgMjcuMjcxOSAxNS4zODQyIDI3LjA3MjEgMTUuOTIwOSAyNy4wNzIxQzE2LjI2MzMgMjcuMDcyMSAxNi41MzU1IDI3LjE1MjEgMTYuNzQ5NCAyNy4zMDAyTDE2Ljc1MDQgMjcuMzAwOEMxNi45NzQzIDI3LjQ1MzkgMTcuMTc3OCAyNy42OTEyIDE3LjM1NTcgMjguMDI1NkMxNy40NzIxIDI4LjI0NTEgMTcuNTg2NSAyOC40MTkzIDE3LjcwMSAyOC41Mjk3TDE3LjcwMzUgMjguNTMyMUMxNy44NDg0IDI4LjY2NyAxOC4wNDU3IDI4LjcxNzYgMTguMjU5OCAyOC43MTc2QzE4LjQ4NDEgMjguNzE3NiAxOC42NzgyIDI4LjYyODkgMTguODMxNSAyOC40NjI4QzE4Ljk4MTMgMjguMzAwNiAxOS4wNjAzIDI4LjEwNjIgMTkuMDYwMyAyNy44ODc3QzE5LjA2MDMgMjcuNTMwNiAxOC45MTgzIDI3LjE3MDEgMTguNjYyMiAyNi44MTAyQzE4LjM5OSAyNi40MzY5IDE4LjAyNSAyNi4xMzA5IDE3LjU1IDI1Ljg4ODNDMTcuMDY1NiAyNS42NDA5IDE2LjUxNzcgMjUuNTE5NyAxNS45MTExIDI1LjUxOTdDMTUuNDExNSAyNS41MTk3IDE0LjkzODQgMjUuNjA4OCAxNC40OTM2IDI1Ljc4ODFDMTQuMDQ3NyAyNS45Njc5IDEzLjY1NzkgMjYuMjMxMSAxMy4zMjU4IDI2LjU3NjlDMTIuOTkyNiAyNi45MjA2IDEyLjczNzYgMjcuMzMzOCAxMi41NTk2IDI3LjgxMzJMMTIuNTU5MSAyNy44MTQzQzEyLjM4MzggMjguMjk1NyAxMi4yOTggMjguODM1NCAxMi4yOTggMjkuNDMwN0MxMi4yOTggMjkuNzk3NyAxMi4zMzE3IDMwLjE0NjYgMTIuMzk5OCAzMC40NzY5TDEyLjQwMDIgMzAuNDc4OEMxMi40NzE3IDMwLjgwOTEgMTIuNTc3NSAzMS4xMjE3IDEyLjcxNzkgMzEuNDE2MUMxMi44NTgzIDMxLjcwNzEgMTMuMDI4NyAzMS45NzI4IDEzLjIyODcgMzIuMjEwN0wxMy4yMjk4IDMyLjIxMkMxMy40NTM2IDMyLjQ3MzcgMTMuNzAwNSAzMi42ODgyIDEzLjk3MSAzMi44NTMzTDEzLjk3MzYgMzIuODU0OUMxNC4yNDY0IDMzLjAxNTcgMTQuNTQ3MiAzMy4xMzM2IDE0Ljg3NDggMzMuMjA5NUMxNS4yMDEzIDMzLjI4NTEgMTUuNTYwMiAzMy4zMjIxIDE1Ljk1MDIgMzMuMzIyMUMxNi40NjkzIDMzLjMyMjEgMTYuOTMzMiAzMy4yMzg5IDE3LjMzNzIgMzMuMDY2OEMxNy43MzI2IDMyLjg5ODMgMTguMDY0MiAzMi42NzcxIDE4LjMyNjcgMzIuNDAwM1pNMjkuMTYyOSAyOC43NzA0VjMyLjI5MkMyOS4xNjI5IDMyLjU5MzIgMjkuMDkzMiAzMi44NTYyIDI4LjkyMDYgMzMuMDQ2NUMyOC43NTM2IDMzLjIzMDYgMjguNTM1OSAzMy4zMjIxIDI4LjI4NDIgMzMuMzIyMUMyOC4wMjgxIDMzLjMyMjEgMjcuODA2OCAzMy4yMzIgMjcuNjQxMSAzMy4wNDQ1TDI3LjYzOTYgMzMuMDQyOEMyNy40NzM1IDMyLjg1MDQgMjcuNDA1NSAzMi41ODk5IDI3LjQwNTUgMzIuMjkyVjI2Ljc2OTVDMjcuNDA1NSAyNi41MjQxIDI3LjQzMjIgMjYuMzExOCAyNy40OTczIDI2LjE0NTFMMjcuNDk5MyAyNi4xMzk5QzI3LjU3NzggMjUuOTUzOSAyNy43MDgxIDI1LjgwNDcgMjcuODgyNSAyNS42OTM0QzI4LjA1NjkgMjUuNTc4OCAyOC4yNDkxIDI1LjUxOTcgMjguNDU1MSAyNS41MTk3QzI4LjYwNTYgMjUuNTE5NyAyOC43NDYzIDI1LjU0NCAyOC44NzAxIDI1LjYwMTJDMjguOTg1OCAyNS42NTMzIDI5LjA4NzkgMjUuNzI0MiAyOS4xNzQzIDI1LjgxNDNDMjkuMjU4MyAyNS44OTg2IDI5LjMzOCAyNi4wMDMgMjkuNDE0MyAyNi4xMjQyQzI5LjQ4OTIgMjYuMjM4MiAyOS41NjU2IDI2LjM1NjkgMjkuNjQzNiAyNi40ODAzTDMyLjA2MzcgMzAuMTQyMlYyNi41NDk4QzMyLjA2MzcgMjYuMjQ5OSAzMi4xMjY0IDI1Ljk4NzUgMzIuMjg3NiAyNS43OTk1QzMyLjQ0OTggMjUuNjExIDMyLjY2ODkgMjUuNTE5NyAzMi45MjI4IDI1LjUxOTdDMzMuMTgwNyAyNS41MTk3IDMzLjQwMzQgMjUuNjA4OSAzMy41NjY4IDI1Ljc5ODNDMzMuNzMyIDI1Ljk4NjQgMzMuNzk2NyAyNi4yNDkzIDMzLjc5NjcgMjYuNTQ5OFYzMi4xNzk3QzMzLjc5NjcgMzIuNTE2NSAzMy43Mjc2IDMyLjgwNjMgMzMuNTU1MyAzMy4wMTQxQzMzLjM3NzEgMzMuMjI5MSAzMy4xMTc2IDMzLjMyMjEgMzIuODE1NCAzMy4zMjIxQzMyLjY2NjIgMzMuMzIyMSAzMi41MjU2IDMzLjI5OTggMzIuMzk2MiAzMy4yNTE3QzMyLjI2NTMgMzMuMjA2MyAzMi4xNDU4IDMzLjEzMzQgMzIuMDM3NyAzMy4wMzY5QzMxLjkzNTEgMzIuOTQ1MiAzMS44NDEgMzIuODQwMSAzMS43NTUyIDMyLjcyMjFMMzEuNzUzNiAzMi43MTk4QzMxLjY3NDkgMzIuNjA4NCAzMS41OTYzIDMyLjQ5NTMgMzEuNTE3NyAzMi4zODA3TDMxLjUxNSAzMi4zNzY5TDI5LjE2MjkgMjguNzcwNFpNMjYuMDI3NiAzMS42MzY2QzI1Ljg2MDcgMzEuOTM5MiAyNS42NDcgMzIuMjEwMSAyNS4zODc0IDMyLjQ0ODlMMjUuMzg1NiAzMi40NTA1QzI1LjE3ODkgMzIuNjM2MiAyNC45NTIgMzIuNzg1OCAyNC43MDUyIDMyLjg5ODdDMjQuNDU5OSAzMy4wMTA4IDI0LjE5NjcgMzMuMDg5IDIzLjkxNjQgMzMuMTM0QzIzLjY0MzMgMzMuMTc4MyAyMy4zMzc4IDMzLjIgMjMuMDAxIDMzLjJIMjEuMTExM0MyMC44MzQxIDMzLjIgMjAuNTkzMyAzMy4xNiAyMC40MTQ2IDMzLjA1NTRMMjAuNDExNSAzMy4wNTM2QzIwLjIzNzggMzIuOTQ3NyAyMC4xMTcyIDMyLjc5NTggMjAuMDYwMSAzMi42MDI2TDIwLjA1ODYgMzIuNTk3NEMyMC4wMTM0IDMyLjQyNzggMTkuOTkzMyAzMi4yMTk5IDE5Ljk5MzMgMzEuOTc5NVYyNi43MzA1QzE5Ljk5MzMgMjYuMzk0NiAyMC4wNjc2IDI2LjEwNDYgMjAuMjYxOSAyNS45MTAzQzIwLjQ1NjEgMjUuNzE2MSAyMC43NDYyIDI1LjY0MTggMjEuMDgyIDI1LjY0MThIMjIuOTcxN0MyMy40NzQ2IDI1LjY0MTggMjMuOTEzOSAyNS42ODgzIDI0LjI4NjUgMjUuNzg0OUMyNC42NjkzIDI1Ljg4NDIgMjUuMDE1NyAyNi4wNzAyIDI1LjMyNDIgMjYuMzRDMjYuMTI2OSAyNy4wMjc0IDI2LjUxMTUgMjguMDYxNiAyNi41MTE1IDI5LjQwMTRDMjYuNTExNSAyOS44NDI1IDI2LjQ3MzEgMzAuMjQ4OCAyNi4zOTQ5IDMwLjYxOTRDMjYuMzE2NSAzMC45OTEyIDI2LjE5NDIgMzEuMzMxMyAyNi4wMjc2IDMxLjYzNjZaTTIzLjk4NTEgMzEuMzU4QzI0LjQwNDYgMzEuMDAzMyAyNC42NDE4IDMwLjM2OTIgMjQuNjQxOCAyOS4zOTE2QzI0LjY0MTggMjguNjk4OSAyNC41MzUzIDI4LjIxNCAyNC4zNDg5IDI3LjkwOUwyNC4zNDgyIDI3LjkwNzhDMjQuMTU1MyAyNy41ODc0IDIzLjkyOTMgMjcuNDAzOCAyMy42NzU2IDI3LjMyNzJMMjMuNjczNyAyNy4zMjY2QzIzLjM4NiAyNy4yMzY3IDIzLjAyOTcgMjcuMTg5MiAyMi42MDA2IDI3LjE4OTJIMjEuODQzNVYzMS42NDc2SDIyLjc0MjJDMjIuOTgwNyAzMS42NDc2IDIzLjE2MjIgMzEuNjQxMiAyMy4yODk2IDMxLjYyOUMyMy40MDggMzEuNjE3NyAyMy41MzM0IDMxLjU4OTMgMjMuNjY2NCAzMS41NDJDMjMuNzkxMSAzMS40OTc3IDIzLjg5NTUgMzEuNDM2OCAyMy45ODIyIDMxLjM2MDVMMjMuOTg1MSAzMS4zNThaIiBjbGlwLXJ1bGU9ImV2ZW5vZGQiIGZpbGwtcnVsZT0iZXZlbm9kZCIvPiYjeGE7PC9zdmc+;fontFamily=VK Sans Display;fontSize=16;" parent="1" vertex="1">
          <mxGeometry x="501.42999999999995" y="140" width="47" height="47" as="geometry" />
        </mxCell>
        <mxCell id="9j2e3ir7Lk6FHDookw-K-29" value="CDN server" style="shape=image;verticalLabelPosition=bottom;labelBackgroundColor=default;verticalAlign=top;aspect=fixed;imageAspect=0;image=data:image/svg+xml,PHN2ZyB4bWxucz0iaHR0cDovL3d3dy53My5vcmcvMjAwMC9zdmciIGZpbGw9Im5vbmUiIHZpZXdCb3g9IjAgMCAzNiAzNiIgaGVpZ2h0PSIzNiIgd2lkdGg9IjM2Ij4mI3hhOzxwYXRoIGZpbGw9IiMwMDc3RkYiIGQ9Ik00Ljk2OTE0IDguNTE4MzdDNC4zMzMzNCA5Ljc2NjE5IDQuMzMzMzQgMTIuMzk5NyA0LjMzMzM0IDE1LjY2NjZWMjAuMzMzM0M0LjMzMzM0IDIzLjYwMDMgNC4zMzMzNCAyNi4yMzM4IDQuOTY5MTQgMjcuNDgxNkM1LjUyODQgMjguNTc5MiA2LjQyMDc5IDI5LjQ3MTYgNy41MTg0IDMwLjAzMDlDNy42NDQyMiAzMC4wOTUgNy43NTM2MyAzMC4xNTI2IDcuODUyIDMwLjIwNDRDOC4wODI2MiAzMC4zMjYgOC4yNTI3MyAzMC40MTU2IDguNDMxNDIgMzAuNDgxNkM4LjU1NDQ5IDMwLjUyNzEgOC44NTA1NyAzMC41NjYyIDkuMDM2OCAzMC41OTgxQzkuNjgyNTcgMzAuNzA4OCAxMC4yMjUgMzAuMTU0NCAxMC4yMjUgMjkuNDk5MkMxMC4yMjUgMjguODk0MSA5Ljc1ODI3IDI4LjQwNzUgOS4xNzE1IDI4LjI1OTZDOC45NDMzNiAyOC4yMDIxIDguNjI1MSAyOC4xMzk3IDguNTExNSAyOC4wODE4QzcuODI1NSAyNy43MzIyIDcuMjY3NzUgMjcuMTc0NSA2LjkxODIyIDI2LjQ4ODVDNi43ODM2MyAyNi4yMjQ0IDYuNjYxNDcgMjUuODIzOSA2LjU5MzA1IDI0Ljk4NjVDNi41MjI1NCAyNC4xMjM1IDYuNTIwODQgMjIuMDAyOSA2LjUyMDg0IDIwLjMzMzNWMTUuNjY2NkM2LjUyMDg0IDEzLjk5NzEgNi41MjI1NCAxMS44NzY0IDYuNTkzMDUgMTEuMDEzNUM2LjY2MTQ3IDEwLjE3NiA2Ljc4MzYzIDkuNzc1NjEgNi45MTgyMiA5LjUxMTQ3QzcuMjY3NzUgOC44MjU0NyA3LjgyNTUgOC4yNjc3MiA4LjUxMTUgNy45MTgxOEM4Ljc3NTY0IDcuNzgzNiA5LjE3NjA0IDcuNjYxNDQgMTAuMDEzNSA3LjU5MzAyQzEwLjMxMzMgNy41Njg1MyAxMC40MDI4IDcuNTUyMzQgMTAuNDYyIDcuNTQxNjRDMTAuNTczMSA3LjUyMTU0IDEwLjU3NzEgNy41MjA4MSAxMS42NjY3IDcuNTIwODFIMTYuMzMzM0MxNy40MjI5IDcuNTIwODEgMTcuNDI2OSA3LjUyMTU0IDE3LjUzODEgNy41NDE2NEMxNy41OTcyIDcuNTUyMzQgMTcuNjg2NyA3LjU2ODUzIDE3Ljk4NjUgNy41OTMwMkMxOC44MjQgNy42NjE0NCAxOS4yMjQ0IDcuNzgzNiAxOS40ODg1IDcuOTE4MThDMjAuMTc0NSA4LjI2NzcyIDIwLjczMjMgOC44MjU0NyAyMS4wODE4IDkuNTExNDdDMjEuMjE2NCA5Ljc3NTYxIDIxLjMzODUgMTAuMTc2IDIxLjQwNyAxMS4wMTM1QzIxLjQ3NzUgMTEuODc2NCAyMS40NzkyIDEzLjk5NzEgMjEuNDc5MiAxNS42NjY2VjIwLjMzMzNMMjEuNDc4OSAyMi40OTk4QzIxLjQ3ODkgMjMuMTAzOCAyMS45Njg2IDIzLjU5MzUgMjIuNTcyNiAyMy41OTM1QzIzLjE3NjcgMjMuNTkzNSAyMy42NjY0IDIzLjEwNDEgMjMuNjY2NCAyMi41TDIzLjY2NjcgMjAuMzMzM1YxNS42NjY2QzIzLjY2NjcgMTIuMzk5NyAyMy42NjY3IDkuNzY2MTkgMjMuMDMwOSA4LjUxODM3QzIyLjQ3MTYgNy40MjA3NiAyMS41NzkyIDYuNTI4MzcgMjAuNDgxNiA1Ljk2OTExQzIwLjM1NTggNS45MDQ5OSAyMC4yNDY0IDUuODQ3MzQgMjAuMTQ4IDUuNzk1NUMxOS45MTc0IDUuNjczOTkgMTkuNzQ3MyA1LjU4NDM4IDE5LjU2ODYgNS41MTgzN0MxOS4wNjc3IDUuMzMzMzEgMTguNDk4NCA1LjMzMzMxIDE2LjMzMzMgNS4zMzMzMUgxMS42NjY3QzkuNTAxNiA1LjMzMzMxIDguOTMyMzIgNS4zMzMzMSA4LjQzMTQyIDUuNTE4MzdDOC4yNTI3MyA1LjU4NDM4IDguMDgyNzQgNS42NzM5NSA3Ljg1MjEyIDUuNzk1NDZDNy43NTM3MSA1Ljg0NzMxIDcuNjQ0MjcgNS45MDQ5NyA3LjUxODQgNS45NjkxMUM2LjQyMDc5IDYuNTI4MzcgNS41Mjg0IDcuNDIwNzYgNC45NjkxNCA4LjUxODM3Wk05IDkuNUM4LjQ0NzcyIDkuNSA4IDkuOTQ3NzIgOCAxMC41QzggMTEuMDUyMyA4LjQ0NzcyIDExLjUgOSAxMS41SDE5QzE5LjU1MjMgMTEuNSAyMCAxMS4wNTIzIDIwIDEwLjVDMjAgOS45NDc3MiAxOS41NTIzIDkuNSAxOSA5LjVIOVpNOCAyMS41QzggMjAuOTQ3NyA4LjQ0NzcyIDIwLjUgOSAyMC41SDE5QzE5LjU1MjMgMjAuNSAyMCAyMC45NDc3IDIwIDIxLjVDMjAgMjIuMDUyMyAxOS41NTIzIDIyLjUgMTkgMjIuNUg5QzguNDQ3NzIgMjIuNSA4IDIyLjA1MjMgOCAyMS41Wk0xOC4zMjY3IDMyLjQwMDNMMTguMzI3NiAzMi4zOTk0QzE4LjU4MDkgMzIuMTI5IDE4Ljc3MTQgMzEuODQ5MiAxOC44OTMyIDMxLjU1OTRDMTkuMDE0NyAzMS4yNzQ0IDE5LjA3OTkgMzEuMDAwMiAxOS4wNzk5IDMwLjczOTNDMTkuMDc5OSAzMC41MDg1IDE4Ljk5NzggMzAuMzA2NCAxOC44MzM4IDMwLjE0NjdDMTguNjcyOCAyOS45OSAxOC40NzQ3IDI5LjkwOTQgMTguMjUgMjkuOTA5NEMxOC4wMDg4IDI5LjkwOTQgMTcuNzkyOCAyOS45ODI5IDE3LjY1MTkgMzAuMTY4MkMxNy41NDM3IDMwLjMwNzYgMTcuNDU4NSAzMC40ODE2IDE3LjM5MjEgMzAuNjgzNEMxNy4yNTY3IDMxLjA1MTkgMTcuMDYwNyAzMS4zMTk0IDE2LjgxMDIgMzEuNDk5NkMxNi41NjM2IDMxLjY3NjEgMTYuMjU0NyAzMS43Njk3IDE1Ljg3MjEgMzEuNzY5N0MxNS41MjA4IDMxLjc2OTcgMTUuMjIzOSAzMS42ODY4IDE0Ljk3MzYgMzEuNTI3NUMxNC43MjcgMzEuMzcwNyAxNC41Mjk2IDMxLjEzMDQgMTQuMzg2MyAzMC43OTMyQzE0LjI0MzcgMzAuNDU0MiAxNC4xNjc4IDMwLjAxODggMTQuMTY3OCAyOS40Nzk1QzE0LjE2NzggMjguNjcxMyAxNC4zMzg2IDI4LjA3ODQgMTQuNjUyNyAyNy42NzM5QzE0Ljk2ODEgMjcuMjcxOSAxNS4zODQyIDI3LjA3MjEgMTUuOTIwOSAyNy4wNzIxQzE2LjI2MzMgMjcuMDcyMSAxNi41MzU1IDI3LjE1MjEgMTYuNzQ5NCAyNy4zMDAyTDE2Ljc1MDQgMjcuMzAwOEMxNi45NzQzIDI3LjQ1MzkgMTcuMTc3OCAyNy42OTEyIDE3LjM1NTcgMjguMDI1NkMxNy40NzIxIDI4LjI0NTEgMTcuNTg2NSAyOC40MTkzIDE3LjcwMSAyOC41Mjk3TDE3LjcwMzUgMjguNTMyMUMxNy44NDg0IDI4LjY2NyAxOC4wNDU3IDI4LjcxNzYgMTguMjU5OCAyOC43MTc2QzE4LjQ4NDEgMjguNzE3NiAxOC42NzgyIDI4LjYyODkgMTguODMxNSAyOC40NjI4QzE4Ljk4MTMgMjguMzAwNiAxOS4wNjAzIDI4LjEwNjIgMTkuMDYwMyAyNy44ODc3QzE5LjA2MDMgMjcuNTMwNiAxOC45MTgzIDI3LjE3MDEgMTguNjYyMiAyNi44MTAyQzE4LjM5OSAyNi40MzY5IDE4LjAyNSAyNi4xMzA5IDE3LjU1IDI1Ljg4ODNDMTcuMDY1NiAyNS42NDA5IDE2LjUxNzcgMjUuNTE5NyAxNS45MTExIDI1LjUxOTdDMTUuNDExNSAyNS41MTk3IDE0LjkzODQgMjUuNjA4OCAxNC40OTM2IDI1Ljc4ODFDMTQuMDQ3NyAyNS45Njc5IDEzLjY1NzkgMjYuMjMxMSAxMy4zMjU4IDI2LjU3NjlDMTIuOTkyNiAyNi45MjA2IDEyLjczNzYgMjcuMzMzOCAxMi41NTk2IDI3LjgxMzJMMTIuNTU5MSAyNy44MTQzQzEyLjM4MzggMjguMjk1NyAxMi4yOTggMjguODM1NCAxMi4yOTggMjkuNDMwN0MxMi4yOTggMjkuNzk3NyAxMi4zMzE3IDMwLjE0NjYgMTIuMzk5OCAzMC40NzY5TDEyLjQwMDIgMzAuNDc4OEMxMi40NzE3IDMwLjgwOTEgMTIuNTc3NSAzMS4xMjE3IDEyLjcxNzkgMzEuNDE2MUMxMi44NTgzIDMxLjcwNzEgMTMuMDI4NyAzMS45NzI4IDEzLjIyODcgMzIuMjEwN0wxMy4yMjk4IDMyLjIxMkMxMy40NTM2IDMyLjQ3MzcgMTMuNzAwNSAzMi42ODgyIDEzLjk3MSAzMi44NTMzTDEzLjk3MzYgMzIuODU0OUMxNC4yNDY0IDMzLjAxNTcgMTQuNTQ3MiAzMy4xMzM2IDE0Ljg3NDggMzMuMjA5NUMxNS4yMDEzIDMzLjI4NTEgMTUuNTYwMiAzMy4zMjIxIDE1Ljk1MDIgMzMuMzIyMUMxNi40NjkzIDMzLjMyMjEgMTYuOTMzMiAzMy4yMzg5IDE3LjMzNzIgMzMuMDY2OEMxNy43MzI2IDMyLjg5ODMgMTguMDY0MiAzMi42NzcxIDE4LjMyNjcgMzIuNDAwM1pNMjkuMTYyOSAyOC43NzA0VjMyLjI5MkMyOS4xNjI5IDMyLjU5MzIgMjkuMDkzMiAzMi44NTYyIDI4LjkyMDYgMzMuMDQ2NUMyOC43NTM2IDMzLjIzMDYgMjguNTM1OSAzMy4zMjIxIDI4LjI4NDIgMzMuMzIyMUMyOC4wMjgxIDMzLjMyMjEgMjcuODA2OCAzMy4yMzIgMjcuNjQxMSAzMy4wNDQ1TDI3LjYzOTYgMzMuMDQyOEMyNy40NzM1IDMyLjg1MDQgMjcuNDA1NSAzMi41ODk5IDI3LjQwNTUgMzIuMjkyVjI2Ljc2OTVDMjcuNDA1NSAyNi41MjQxIDI3LjQzMjIgMjYuMzExOCAyNy40OTczIDI2LjE0NTFMMjcuNDk5MyAyNi4xMzk5QzI3LjU3NzggMjUuOTUzOSAyNy43MDgxIDI1LjgwNDcgMjcuODgyNSAyNS42OTM0QzI4LjA1NjkgMjUuNTc4OCAyOC4yNDkxIDI1LjUxOTcgMjguNDU1MSAyNS41MTk3QzI4LjYwNTYgMjUuNTE5NyAyOC43NDYzIDI1LjU0NCAyOC44NzAxIDI1LjYwMTJDMjguOTg1OCAyNS42NTMzIDI5LjA4NzkgMjUuNzI0MiAyOS4xNzQzIDI1LjgxNDNDMjkuMjU4MyAyNS44OTg2IDI5LjMzOCAyNi4wMDMgMjkuNDE0MyAyNi4xMjQyQzI5LjQ4OTIgMjYuMjM4MiAyOS41NjU2IDI2LjM1NjkgMjkuNjQzNiAyNi40ODAzTDMyLjA2MzcgMzAuMTQyMlYyNi41NDk4QzMyLjA2MzcgMjYuMjQ5OSAzMi4xMjY0IDI1Ljk4NzUgMzIuMjg3NiAyNS43OTk1QzMyLjQ0OTggMjUuNjExIDMyLjY2ODkgMjUuNTE5NyAzMi45MjI4IDI1LjUxOTdDMzMuMTgwNyAyNS41MTk3IDMzLjQwMzQgMjUuNjA4OSAzMy41NjY4IDI1Ljc5ODNDMzMuNzMyIDI1Ljk4NjQgMzMuNzk2NyAyNi4yNDkzIDMzLjc5NjcgMjYuNTQ5OFYzMi4xNzk3QzMzLjc5NjcgMzIuNTE2NSAzMy43Mjc2IDMyLjgwNjMgMzMuNTU1MyAzMy4wMTQxQzMzLjM3NzEgMzMuMjI5MSAzMy4xMTc2IDMzLjMyMjEgMzIuODE1NCAzMy4zMjIxQzMyLjY2NjIgMzMuMzIyMSAzMi41MjU2IDMzLjI5OTggMzIuMzk2MiAzMy4yNTE3QzMyLjI2NTMgMzMuMjA2MyAzMi4xNDU4IDMzLjEzMzQgMzIuMDM3NyAzMy4wMzY5QzMxLjkzNTEgMzIuOTQ1MiAzMS44NDEgMzIuODQwMSAzMS43NTUyIDMyLjcyMjFMMzEuNzUzNiAzMi43MTk4QzMxLjY3NDkgMzIuNjA4NCAzMS41OTYzIDMyLjQ5NTMgMzEuNTE3NyAzMi4zODA3TDMxLjUxNSAzMi4zNzY5TDI5LjE2MjkgMjguNzcwNFpNMjYuMDI3NiAzMS42MzY2QzI1Ljg2MDcgMzEuOTM5MiAyNS42NDcgMzIuMjEwMSAyNS4zODc0IDMyLjQ0ODlMMjUuMzg1NiAzMi40NTA1QzI1LjE3ODkgMzIuNjM2MiAyNC45NTIgMzIuNzg1OCAyNC43MDUyIDMyLjg5ODdDMjQuNDU5OSAzMy4wMTA4IDI0LjE5NjcgMzMuMDg5IDIzLjkxNjQgMzMuMTM0QzIzLjY0MzMgMzMuMTc4MyAyMy4zMzc4IDMzLjIgMjMuMDAxIDMzLjJIMjEuMTExM0MyMC44MzQxIDMzLjIgMjAuNTkzMyAzMy4xNiAyMC40MTQ2IDMzLjA1NTRMMjAuNDExNSAzMy4wNTM2QzIwLjIzNzggMzIuOTQ3NyAyMC4xMTcyIDMyLjc5NTggMjAuMDYwMSAzMi42MDI2TDIwLjA1ODYgMzIuNTk3NEMyMC4wMTM0IDMyLjQyNzggMTkuOTkzMyAzMi4yMTk5IDE5Ljk5MzMgMzEuOTc5NVYyNi43MzA1QzE5Ljk5MzMgMjYuMzk0NiAyMC4wNjc2IDI2LjEwNDYgMjAuMjYxOSAyNS45MTAzQzIwLjQ1NjEgMjUuNzE2MSAyMC43NDYyIDI1LjY0MTggMjEuMDgyIDI1LjY0MThIMjIuOTcxN0MyMy40NzQ2IDI1LjY0MTggMjMuOTEzOSAyNS42ODgzIDI0LjI4NjUgMjUuNzg0OUMyNC42NjkzIDI1Ljg4NDIgMjUuMDE1NyAyNi4wNzAyIDI1LjMyNDIgMjYuMzRDMjYuMTI2OSAyNy4wMjc0IDI2LjUxMTUgMjguMDYxNiAyNi41MTE1IDI5LjQwMTRDMjYuNTExNSAyOS44NDI1IDI2LjQ3MzEgMzAuMjQ4OCAyNi4zOTQ5IDMwLjYxOTRDMjYuMzE2NSAzMC45OTEyIDI2LjE5NDIgMzEuMzMxMyAyNi4wMjc2IDMxLjYzNjZaTTIzLjk4NTEgMzEuMzU4QzI0LjQwNDYgMzEuMDAzMyAyNC42NDE4IDMwLjM2OTIgMjQuNjQxOCAyOS4zOTE2QzI0LjY0MTggMjguNjk4OSAyNC41MzUzIDI4LjIxNCAyNC4zNDg5IDI3LjkwOUwyNC4zNDgyIDI3LjkwNzhDMjQuMTU1MyAyNy41ODc0IDIzLjkyOTMgMjcuNDAzOCAyMy42NzU2IDI3LjMyNzJMMjMuNjczNyAyNy4zMjY2QzIzLjM4NiAyNy4yMzY3IDIzLjAyOTcgMjcuMTg5MiAyMi42MDA2IDI3LjE4OTJIMjEuODQzNVYzMS42NDc2SDIyLjc0MjJDMjIuOTgwNyAzMS42NDc2IDIzLjE2MjIgMzEuNjQxMiAyMy4yODk2IDMxLjYyOUMyMy40MDggMzEuNjE3NyAyMy41MzM0IDMxLjU4OTMgMjMuNjY2NCAzMS41NDJDMjMuNzkxMSAzMS40OTc3IDIzLjg5NTUgMzEuNDM2OCAyMy45ODIyIDMxLjM2MDVMMjMuOTg1MSAzMS4zNThaIiBjbGlwLXJ1bGU9ImV2ZW5vZGQiIGZpbGwtcnVsZT0iZXZlbm9kZCIvPiYjeGE7PC9zdmc+;fontFamily=VK Sans Display;fontSize=16;" parent="1" vertex="1">
          <mxGeometry x="605.08" y="242" width="47" height="47" as="geometry" />
        </mxCell>
        <mxCell id="9j2e3ir7Lk6FHDookw-K-30" value="CDN server" style="shape=image;verticalLabelPosition=bottom;labelBackgroundColor=default;verticalAlign=top;aspect=fixed;imageAspect=0;image=data:image/svg+xml,PHN2ZyB4bWxucz0iaHR0cDovL3d3dy53My5vcmcvMjAwMC9zdmciIGZpbGw9Im5vbmUiIHZpZXdCb3g9IjAgMCAzNiAzNiIgaGVpZ2h0PSIzNiIgd2lkdGg9IjM2Ij4mI3hhOzxwYXRoIGZpbGw9IiMwMDc3RkYiIGQ9Ik00Ljk2OTE0IDguNTE4MzdDNC4zMzMzNCA5Ljc2NjE5IDQuMzMzMzQgMTIuMzk5NyA0LjMzMzM0IDE1LjY2NjZWMjAuMzMzM0M0LjMzMzM0IDIzLjYwMDMgNC4zMzMzNCAyNi4yMzM4IDQuOTY5MTQgMjcuNDgxNkM1LjUyODQgMjguNTc5MiA2LjQyMDc5IDI5LjQ3MTYgNy41MTg0IDMwLjAzMDlDNy42NDQyMiAzMC4wOTUgNy43NTM2MyAzMC4xNTI2IDcuODUyIDMwLjIwNDRDOC4wODI2MiAzMC4zMjYgOC4yNTI3MyAzMC40MTU2IDguNDMxNDIgMzAuNDgxNkM4LjU1NDQ5IDMwLjUyNzEgOC44NTA1NyAzMC41NjYyIDkuMDM2OCAzMC41OTgxQzkuNjgyNTcgMzAuNzA4OCAxMC4yMjUgMzAuMTU0NCAxMC4yMjUgMjkuNDk5MkMxMC4yMjUgMjguODk0MSA5Ljc1ODI3IDI4LjQwNzUgOS4xNzE1IDI4LjI1OTZDOC45NDMzNiAyOC4yMDIxIDguNjI1MSAyOC4xMzk3IDguNTExNSAyOC4wODE4QzcuODI1NSAyNy43MzIyIDcuMjY3NzUgMjcuMTc0NSA2LjkxODIyIDI2LjQ4ODVDNi43ODM2MyAyNi4yMjQ0IDYuNjYxNDcgMjUuODIzOSA2LjU5MzA1IDI0Ljk4NjVDNi41MjI1NCAyNC4xMjM1IDYuNTIwODQgMjIuMDAyOSA2LjUyMDg0IDIwLjMzMzNWMTUuNjY2NkM2LjUyMDg0IDEzLjk5NzEgNi41MjI1NCAxMS44NzY0IDYuNTkzMDUgMTEuMDEzNUM2LjY2MTQ3IDEwLjE3NiA2Ljc4MzYzIDkuNzc1NjEgNi45MTgyMiA5LjUxMTQ3QzcuMjY3NzUgOC44MjU0NyA3LjgyNTUgOC4yNjc3MiA4LjUxMTUgNy45MTgxOEM4Ljc3NTY0IDcuNzgzNiA5LjE3NjA0IDcuNjYxNDQgMTAuMDEzNSA3LjU5MzAyQzEwLjMxMzMgNy41Njg1MyAxMC40MDI4IDcuNTUyMzQgMTAuNDYyIDcuNTQxNjRDMTAuNTczMSA3LjUyMTU0IDEwLjU3NzEgNy41MjA4MSAxMS42NjY3IDcuNTIwODFIMTYuMzMzM0MxNy40MjI5IDcuNTIwODEgMTcuNDI2OSA3LjUyMTU0IDE3LjUzODEgNy41NDE2NEMxNy41OTcyIDcuNTUyMzQgMTcuNjg2NyA3LjU2ODUzIDE3Ljk4NjUgNy41OTMwMkMxOC44MjQgNy42NjE0NCAxOS4yMjQ0IDcuNzgzNiAxOS40ODg1IDcuOTE4MThDMjAuMTc0NSA4LjI2NzcyIDIwLjczMjMgOC44MjU0NyAyMS4wODE4IDkuNTExNDdDMjEuMjE2NCA5Ljc3NTYxIDIxLjMzODUgMTAuMTc2IDIxLjQwNyAxMS4wMTM1QzIxLjQ3NzUgMTEuODc2NCAyMS40NzkyIDEzLjk5NzEgMjEuNDc5MiAxNS42NjY2VjIwLjMzMzNMMjEuNDc4OSAyMi40OTk4QzIxLjQ3ODkgMjMuMTAzOCAyMS45Njg2IDIzLjU5MzUgMjIuNTcyNiAyMy41OTM1QzIzLjE3NjcgMjMuNTkzNSAyMy42NjY0IDIzLjEwNDEgMjMuNjY2NCAyMi41TDIzLjY2NjcgMjAuMzMzM1YxNS42NjY2QzIzLjY2NjcgMTIuMzk5NyAyMy42NjY3IDkuNzY2MTkgMjMuMDMwOSA4LjUxODM3QzIyLjQ3MTYgNy40MjA3NiAyMS41NzkyIDYuNTI4MzcgMjAuNDgxNiA1Ljk2OTExQzIwLjM1NTggNS45MDQ5OSAyMC4yNDY0IDUuODQ3MzQgMjAuMTQ4IDUuNzk1NUMxOS45MTc0IDUuNjczOTkgMTkuNzQ3MyA1LjU4NDM4IDE5LjU2ODYgNS41MTgzN0MxOS4wNjc3IDUuMzMzMzEgMTguNDk4NCA1LjMzMzMxIDE2LjMzMzMgNS4zMzMzMUgxMS42NjY3QzkuNTAxNiA1LjMzMzMxIDguOTMyMzIgNS4zMzMzMSA4LjQzMTQyIDUuNTE4MzdDOC4yNTI3MyA1LjU4NDM4IDguMDgyNzQgNS42NzM5NSA3Ljg1MjEyIDUuNzk1NDZDNy43NTM3MSA1Ljg0NzMxIDcuNjQ0MjcgNS45MDQ5NyA3LjUxODQgNS45NjkxMUM2LjQyMDc5IDYuNTI4MzcgNS41Mjg0IDcuNDIwNzYgNC45NjkxNCA4LjUxODM3Wk05IDkuNUM4LjQ0NzcyIDkuNSA4IDkuOTQ3NzIgOCAxMC41QzggMTEuMDUyMyA4LjQ0NzcyIDExLjUgOSAxMS41SDE5QzE5LjU1MjMgMTEuNSAyMCAxMS4wNTIzIDIwIDEwLjVDMjAgOS45NDc3MiAxOS41NTIzIDkuNSAxOSA5LjVIOVpNOCAyMS41QzggMjAuOTQ3NyA4LjQ0NzcyIDIwLjUgOSAyMC41SDE5QzE5LjU1MjMgMjAuNSAyMCAyMC45NDc3IDIwIDIxLjVDMjAgMjIuMDUyMyAxOS41NTIzIDIyLjUgMTkgMjIuNUg5QzguNDQ3NzIgMjIuNSA4IDIyLjA1MjMgOCAyMS41Wk0xOC4zMjY3IDMyLjQwMDNMMTguMzI3NiAzMi4zOTk0QzE4LjU4MDkgMzIuMTI5IDE4Ljc3MTQgMzEuODQ5MiAxOC44OTMyIDMxLjU1OTRDMTkuMDE0NyAzMS4yNzQ0IDE5LjA3OTkgMzEuMDAwMiAxOS4wNzk5IDMwLjczOTNDMTkuMDc5OSAzMC41MDg1IDE4Ljk5NzggMzAuMzA2NCAxOC44MzM4IDMwLjE0NjdDMTguNjcyOCAyOS45OSAxOC40NzQ3IDI5LjkwOTQgMTguMjUgMjkuOTA5NEMxOC4wMDg4IDI5LjkwOTQgMTcuNzkyOCAyOS45ODI5IDE3LjY1MTkgMzAuMTY4MkMxNy41NDM3IDMwLjMwNzYgMTcuNDU4NSAzMC40ODE2IDE3LjM5MjEgMzAuNjgzNEMxNy4yNTY3IDMxLjA1MTkgMTcuMDYwNyAzMS4zMTk0IDE2LjgxMDIgMzEuNDk5NkMxNi41NjM2IDMxLjY3NjEgMTYuMjU0NyAzMS43Njk3IDE1Ljg3MjEgMzEuNzY5N0MxNS41MjA4IDMxLjc2OTcgMTUuMjIzOSAzMS42ODY4IDE0Ljk3MzYgMzEuNTI3NUMxNC43MjcgMzEuMzcwNyAxNC41Mjk2IDMxLjEzMDQgMTQuMzg2MyAzMC43OTMyQzE0LjI0MzcgMzAuNDU0MiAxNC4xNjc4IDMwLjAxODggMTQuMTY3OCAyOS40Nzk1QzE0LjE2NzggMjguNjcxMyAxNC4zMzg2IDI4LjA3ODQgMTQuNjUyNyAyNy42NzM5QzE0Ljk2ODEgMjcuMjcxOSAxNS4zODQyIDI3LjA3MjEgMTUuOTIwOSAyNy4wNzIxQzE2LjI2MzMgMjcuMDcyMSAxNi41MzU1IDI3LjE1MjEgMTYuNzQ5NCAyNy4zMDAyTDE2Ljc1MDQgMjcuMzAwOEMxNi45NzQzIDI3LjQ1MzkgMTcuMTc3OCAyNy42OTEyIDE3LjM1NTcgMjguMDI1NkMxNy40NzIxIDI4LjI0NTEgMTcuNTg2NSAyOC40MTkzIDE3LjcwMSAyOC41Mjk3TDE3LjcwMzUgMjguNTMyMUMxNy44NDg0IDI4LjY2NyAxOC4wNDU3IDI4LjcxNzYgMTguMjU5OCAyOC43MTc2QzE4LjQ4NDEgMjguNzE3NiAxOC42NzgyIDI4LjYyODkgMTguODMxNSAyOC40NjI4QzE4Ljk4MTMgMjguMzAwNiAxOS4wNjAzIDI4LjEwNjIgMTkuMDYwMyAyNy44ODc3QzE5LjA2MDMgMjcuNTMwNiAxOC45MTgzIDI3LjE3MDEgMTguNjYyMiAyNi44MTAyQzE4LjM5OSAyNi40MzY5IDE4LjAyNSAyNi4xMzA5IDE3LjU1IDI1Ljg4ODNDMTcuMDY1NiAyNS42NDA5IDE2LjUxNzcgMjUuNTE5NyAxNS45MTExIDI1LjUxOTdDMTUuNDExNSAyNS41MTk3IDE0LjkzODQgMjUuNjA4OCAxNC40OTM2IDI1Ljc4ODFDMTQuMDQ3NyAyNS45Njc5IDEzLjY1NzkgMjYuMjMxMSAxMy4zMjU4IDI2LjU3NjlDMTIuOTkyNiAyNi45MjA2IDEyLjczNzYgMjcuMzMzOCAxMi41NTk2IDI3LjgxMzJMMTIuNTU5MSAyNy44MTQzQzEyLjM4MzggMjguMjk1NyAxMi4yOTggMjguODM1NCAxMi4yOTggMjkuNDMwN0MxMi4yOTggMjkuNzk3NyAxMi4zMzE3IDMwLjE0NjYgMTIuMzk5OCAzMC40NzY5TDEyLjQwMDIgMzAuNDc4OEMxMi40NzE3IDMwLjgwOTEgMTIuNTc3NSAzMS4xMjE3IDEyLjcxNzkgMzEuNDE2MUMxMi44NTgzIDMxLjcwNzEgMTMuMDI4NyAzMS45NzI4IDEzLjIyODcgMzIuMjEwN0wxMy4yMjk4IDMyLjIxMkMxMy40NTM2IDMyLjQ3MzcgMTMuNzAwNSAzMi42ODgyIDEzLjk3MSAzMi44NTMzTDEzLjk3MzYgMzIuODU0OUMxNC4yNDY0IDMzLjAxNTcgMTQuNTQ3MiAzMy4xMzM2IDE0Ljg3NDggMzMuMjA5NUMxNS4yMDEzIDMzLjI4NTEgMTUuNTYwMiAzMy4zMjIxIDE1Ljk1MDIgMzMuMzIyMUMxNi40NjkzIDMzLjMyMjEgMTYuOTMzMiAzMy4yMzg5IDE3LjMzNzIgMzMuMDY2OEMxNy43MzI2IDMyLjg5ODMgMTguMDY0MiAzMi42NzcxIDE4LjMyNjcgMzIuNDAwM1pNMjkuMTYyOSAyOC43NzA0VjMyLjI5MkMyOS4xNjI5IDMyLjU5MzIgMjkuMDkzMiAzMi44NTYyIDI4LjkyMDYgMzMuMDQ2NUMyOC43NTM2IDMzLjIzMDYgMjguNTM1OSAzMy4zMjIxIDI4LjI4NDIgMzMuMzIyMUMyOC4wMjgxIDMzLjMyMjEgMjcuODA2OCAzMy4yMzIgMjcuNjQxMSAzMy4wNDQ1TDI3LjYzOTYgMzMuMDQyOEMyNy40NzM1IDMyLjg1MDQgMjcuNDA1NSAzMi41ODk5IDI3LjQwNTUgMzIuMjkyVjI2Ljc2OTVDMjcuNDA1NSAyNi41MjQxIDI3LjQzMjIgMjYuMzExOCAyNy40OTczIDI2LjE0NTFMMjcuNDk5MyAyNi4xMzk5QzI3LjU3NzggMjUuOTUzOSAyNy43MDgxIDI1LjgwNDcgMjcuODgyNSAyNS42OTM0QzI4LjA1NjkgMjUuNTc4OCAyOC4yNDkxIDI1LjUxOTcgMjguNDU1MSAyNS41MTk3QzI4LjYwNTYgMjUuNTE5NyAyOC43NDYzIDI1LjU0NCAyOC44NzAxIDI1LjYwMTJDMjguOTg1OCAyNS42NTMzIDI5LjA4NzkgMjUuNzI0MiAyOS4xNzQzIDI1LjgxNDNDMjkuMjU4MyAyNS44OTg2IDI5LjMzOCAyNi4wMDMgMjkuNDE0MyAyNi4xMjQyQzI5LjQ4OTIgMjYuMjM4MiAyOS41NjU2IDI2LjM1NjkgMjkuNjQzNiAyNi40ODAzTDMyLjA2MzcgMzAuMTQyMlYyNi41NDk4QzMyLjA2MzcgMjYuMjQ5OSAzMi4xMjY0IDI1Ljk4NzUgMzIuMjg3NiAyNS43OTk1QzMyLjQ0OTggMjUuNjExIDMyLjY2ODkgMjUuNTE5NyAzMi45MjI4IDI1LjUxOTdDMzMuMTgwNyAyNS41MTk3IDMzLjQwMzQgMjUuNjA4OSAzMy41NjY4IDI1Ljc5ODNDMzMuNzMyIDI1Ljk4NjQgMzMuNzk2NyAyNi4yNDkzIDMzLjc5NjcgMjYuNTQ5OFYzMi4xNzk3QzMzLjc5NjcgMzIuNTE2NSAzMy43Mjc2IDMyLjgwNjMgMzMuNTU1MyAzMy4wMTQxQzMzLjM3NzEgMzMuMjI5MSAzMy4xMTc2IDMzLjMyMjEgMzIuODE1NCAzMy4zMjIxQzMyLjY2NjIgMzMuMzIyMSAzMi41MjU2IDMzLjI5OTggMzIuMzk2MiAzMy4yNTE3QzMyLjI2NTMgMzMuMjA2MyAzMi4xNDU4IDMzLjEzMzQgMzIuMDM3NyAzMy4wMzY5QzMxLjkzNTEgMzIuOTQ1MiAzMS44NDEgMzIuODQwMSAzMS43NTUyIDMyLjcyMjFMMzEuNzUzNiAzMi43MTk4QzMxLjY3NDkgMzIuNjA4NCAzMS41OTYzIDMyLjQ5NTMgMzEuNTE3NyAzMi4zODA3TDMxLjUxNSAzMi4zNzY5TDI5LjE2MjkgMjguNzcwNFpNMjYuMDI3NiAzMS42MzY2QzI1Ljg2MDcgMzEuOTM5MiAyNS42NDcgMzIuMjEwMSAyNS4zODc0IDMyLjQ0ODlMMjUuMzg1NiAzMi40NTA1QzI1LjE3ODkgMzIuNjM2MiAyNC45NTIgMzIuNzg1OCAyNC43MDUyIDMyLjg5ODdDMjQuNDU5OSAzMy4wMTA4IDI0LjE5NjcgMzMuMDg5IDIzLjkxNjQgMzMuMTM0QzIzLjY0MzMgMzMuMTc4MyAyMy4zMzc4IDMzLjIgMjMuMDAxIDMzLjJIMjEuMTExM0MyMC44MzQxIDMzLjIgMjAuNTkzMyAzMy4xNiAyMC40MTQ2IDMzLjA1NTRMMjAuNDExNSAzMy4wNTM2QzIwLjIzNzggMzIuOTQ3NyAyMC4xMTcyIDMyLjc5NTggMjAuMDYwMSAzMi42MDI2TDIwLjA1ODYgMzIuNTk3NEMyMC4wMTM0IDMyLjQyNzggMTkuOTkzMyAzMi4yMTk5IDE5Ljk5MzMgMzEuOTc5NVYyNi43MzA1QzE5Ljk5MzMgMjYuMzk0NiAyMC4wNjc2IDI2LjEwNDYgMjAuMjYxOSAyNS45MTAzQzIwLjQ1NjEgMjUuNzE2MSAyMC43NDYyIDI1LjY0MTggMjEuMDgyIDI1LjY0MThIMjIuOTcxN0MyMy40NzQ2IDI1LjY0MTggMjMuOTEzOSAyNS42ODgzIDI0LjI4NjUgMjUuNzg0OUMyNC42NjkzIDI1Ljg4NDIgMjUuMDE1NyAyNi4wNzAyIDI1LjMyNDIgMjYuMzRDMjYuMTI2OSAyNy4wMjc0IDI2LjUxMTUgMjguMDYxNiAyNi41MTE1IDI5LjQwMTRDMjYuNTExNSAyOS44NDI1IDI2LjQ3MzEgMzAuMjQ4OCAyNi4zOTQ5IDMwLjYxOTRDMjYuMzE2NSAzMC45OTEyIDI2LjE5NDIgMzEuMzMxMyAyNi4wMjc2IDMxLjYzNjZaTTIzLjk4NTEgMzEuMzU4QzI0LjQwNDYgMzEuMDAzMyAyNC42NDE4IDMwLjM2OTIgMjQuNjQxOCAyOS4zOTE2QzI0LjY0MTggMjguNjk4OSAyNC41MzUzIDI4LjIxNCAyNC4zNDg5IDI3LjkwOUwyNC4zNDgyIDI3LjkwNzhDMjQuMTU1MyAyNy41ODc0IDIzLjkyOTMgMjcuNDAzOCAyMy42NzU2IDI3LjMyNzJMMjMuNjczNyAyNy4zMjY2QzIzLjM4NiAyNy4yMzY3IDIzLjAyOTcgMjcuMTg5MiAyMi42MDA2IDI3LjE4OTJIMjEuODQzNVYzMS42NDc2SDIyLjc0MjJDMjIuOTgwNyAzMS42NDc2IDIzLjE2MjIgMzEuNjQxMiAyMy4yODk2IDMxLjYyOUMyMy40MDggMzEuNjE3NyAyMy41MzM0IDMxLjU4OTMgMjMuNjY2NCAzMS41NDJDMjMuNzkxMSAzMS40OTc3IDIzLjg5NTUgMzEuNDM2OCAyMy45ODIyIDMxLjM2MDVMMjMuOTg1MSAzMS4zNThaIiBjbGlwLXJ1bGU9ImV2ZW5vZGQiIGZpbGwtcnVsZT0iZXZlbm9kZCIvPiYjeGE7PC9zdmc+;fontFamily=VK Sans Display;fontSize=16;" parent="1" vertex="1">
          <mxGeometry x="711" y="344" width="47" height="47" as="geometry" />
        </mxCell>
        <mxCell id="9j2e3ir7Lk6FHDookw-K-31" value="" style="shape=image;verticalLabelPosition=bottom;labelBackgroundColor=default;verticalAlign=top;aspect=fixed;imageAspect=0;image=data:image/svg+xml,PHN2ZyB4bWxucz0iaHR0cDovL3d3dy53My5vcmcvMjAwMC9zdmciIGZpbGw9Im5vbmUiIHZpZXdCb3g9IjAgMCAyOCAyOCIgaGVpZ2h0PSIyOCIgd2lkdGg9IjI4Ij4mI3hhOzxwYXRoIGZpbGw9IiMyNjg4RUIiIGQ9Ik0xNy41IDguNUMxNy41IDYuNTY2MDMgMTUuOTM0IDUgMTQgNUMxMi4wNjYgNSAxMC41IDYuNTY2MDMgMTAuNSA4LjVDMTAuNSAxMC40MzQgMTIuMDY2IDEyIDE0IDEyQzE1LjkzNCAxMiAxNy41IDEwLjQzNCAxNy41IDguNVpNMTkuNSA4LjVDMTkuNSAxMS41Mzg1IDE3LjAzODUgMTQgMTQgMTRDMTAuOTYxNSAxNCA4LjUgMTEuNTM4NSA4LjUgOC41QzguNSA1LjQ2MTQ3IDEwLjk2MTUgMyAxNCAzQzE3LjAzODUgMyAxOS41IDUuNDYxNDcgMTkuNSA4LjVaTTcgMjAuNjQyOUM3IDIxLjU4NjIgNi45MTk4NyAyMS41IDcuNDU1ODggMjEuNUgyMS4wNDQxQzIxLjU4MDEgMjEuNSAyMS41IDIxLjU4NjIgMjEuNSAyMC42NDI5QzIxLjUgMTguMzU0NyAxOC4xOTYgMTcgMTQuMjUgMTdDMTAuMzA0IDE3IDcgMTguMzU0NyA3IDIwLjY0MjlaTTUgMjAuNjQyOUM1IDE2Ljc2MjYgOS4yOTg5MiAxNSAxNC4yNSAxNUMxOS4yMDExIDE1IDIzLjUgMTYuNzYyNiAyMy41IDIwLjY0MjlDMjMuNSAyMi42NTkzIDIyLjcxODkgMjMuNSAyMS4wNDQxIDIzLjVINy40NTU4OEM1Ljc4MTExIDIzLjUgNSAyMi42NTkzIDUgMjAuNjQyOVoiLz4mI3hhOzwvc3ZnPg==;fontFamily=VK Sans Display;spacing=-7;fontColor=#212121;fontSize=16;" parent="1" vertex="1">
          <mxGeometry x="437.42999999999995" y="220" width="40" height="40" as="geometry" />
        </mxCell>
        <mxCell id="9j2e3ir7Lk6FHDookw-K-32" value="" style="shape=image;verticalLabelPosition=bottom;labelBackgroundColor=default;verticalAlign=top;aspect=fixed;imageAspect=0;image=data:image/svg+xml,PHN2ZyB4bWxucz0iaHR0cDovL3d3dy53My5vcmcvMjAwMC9zdmciIGZpbGw9Im5vbmUiIHZpZXdCb3g9IjAgMCAyOCAyOCIgaGVpZ2h0PSIyOCIgd2lkdGg9IjI4Ij4mI3hhOzxwYXRoIGZpbGw9IiMyNjg4RUIiIGQ9Ik0xNy41IDguNUMxNy41IDYuNTY2MDMgMTUuOTM0IDUgMTQgNUMxMi4wNjYgNSAxMC41IDYuNTY2MDMgMTAuNSA4LjVDMTAuNSAxMC40MzQgMTIuMDY2IDEyIDE0IDEyQzE1LjkzNCAxMiAxNy41IDEwLjQzNCAxNy41IDguNVpNMTkuNSA4LjVDMTkuNSAxMS41Mzg1IDE3LjAzODUgMTQgMTQgMTRDMTAuOTYxNSAxNCA4LjUgMTEuNTM4NSA4LjUgOC41QzguNSA1LjQ2MTQ3IDEwLjk2MTUgMyAxNCAzQzE3LjAzODUgMyAxOS41IDUuNDYxNDcgMTkuNSA4LjVaTTcgMjAuNjQyOUM3IDIxLjU4NjIgNi45MTk4NyAyMS41IDcuNDU1ODggMjEuNUgyMS4wNDQxQzIxLjU4MDEgMjEuNSAyMS41IDIxLjU4NjIgMjEuNSAyMC42NDI5QzIxLjUgMTguMzU0NyAxOC4xOTYgMTcgMTQuMjUgMTdDMTAuMzA0IDE3IDcgMTguMzU0NyA3IDIwLjY0MjlaTTUgMjAuNjQyOUM1IDE2Ljc2MjYgOS4yOTg5MiAxNSAxNC4yNSAxNUMxOS4yMDExIDE1IDIzLjUgMTYuNzYyNiAyMy41IDIwLjY0MjlDMjMuNSAyMi42NTkzIDIyLjcxODkgMjMuNSAyMS4wNDQxIDIzLjVINy40NTU4OEM1Ljc4MTExIDIzLjUgNSAyMi42NTkzIDUgMjAuNjQyOVoiLz4mI3hhOzwvc3ZnPg==;fontFamily=VK Sans Display;spacing=-7;fontColor=#212121;fontSize=16;" parent="1" vertex="1">
          <mxGeometry x="536" y="316" width="40" height="40" as="geometry" />
        </mxCell>
        <mxCell id="9j2e3ir7Lk6FHDookw-K-35" value="" style="shape=image;verticalLabelPosition=bottom;labelBackgroundColor=default;verticalAlign=top;aspect=fixed;imageAspect=0;image=data:image/svg+xml,PHN2ZyB4bWxucz0iaHR0cDovL3d3dy53My5vcmcvMjAwMC9zdmciIGZpbGw9Im5vbmUiIHZpZXdCb3g9IjAgMCAyOCAyOCIgaGVpZ2h0PSIyOCIgd2lkdGg9IjI4Ij4mI3hhOzxwYXRoIGZpbGw9IiMyNjg4RUIiIGQ9Ik0xNy41IDguNUMxNy41IDYuNTY2MDMgMTUuOTM0IDUgMTQgNUMxMi4wNjYgNSAxMC41IDYuNTY2MDMgMTAuNSA4LjVDMTAuNSAxMC40MzQgMTIuMDY2IDEyIDE0IDEyQzE1LjkzNCAxMiAxNy41IDEwLjQzNCAxNy41IDguNVpNMTkuNSA4LjVDMTkuNSAxMS41Mzg1IDE3LjAzODUgMTQgMTQgMTRDMTAuOTYxNSAxNCA4LjUgMTEuNTM4NSA4LjUgOC41QzguNSA1LjQ2MTQ3IDEwLjk2MTUgMyAxNCAzQzE3LjAzODUgMyAxOS41IDUuNDYxNDcgMTkuNSA4LjVaTTcgMjAuNjQyOUM3IDIxLjU4NjIgNi45MTk4NyAyMS41IDcuNDU1ODggMjEuNUgyMS4wNDQxQzIxLjU4MDEgMjEuNSAyMS41IDIxLjU4NjIgMjEuNSAyMC42NDI5QzIxLjUgMTguMzU0NyAxOC4xOTYgMTcgMTQuMjUgMTdDMTAuMzA0IDE3IDcgMTguMzU0NyA3IDIwLjY0MjlaTTUgMjAuNjQyOUM1IDE2Ljc2MjYgOS4yOTg5MiAxNSAxNC4yNSAxNUMxOS4yMDExIDE1IDIzLjUgMTYuNzYyNiAyMy41IDIwLjY0MjlDMjMuNSAyMi42NTkzIDIyLjcxODkgMjMuNSAyMS4wNDQxIDIzLjVINy40NTU4OEM1Ljc4MTExIDIzLjUgNSAyMi42NTkzIDUgMjAuNjQyOVoiLz4mI3hhOzwvc3ZnPg==;fontFamily=VK Sans Display;spacing=-7;fontColor=#212121;fontSize=16;" parent="1" vertex="1">
          <mxGeometry x="651" y="429" width="40" height="40" as="geometry" />
        </mxCell>
        <mxCell id="9j2e3ir7Lk6FHDookw-K-40" value="" style="endArrow=open;html=1;fontFamily=VK Sans Display;fontColor=#212121;strokeColor=#7C8A9A;endFill=0;strokeWidth=2;arcSize=8;rounded=1;exitX=0.37;exitY=0.009;exitDx=0;exitDy=0;entryX=0;entryY=0.5;entryDx=0;entryDy=0;edgeStyle=orthogonalEdgeStyle;dashed=1;exitPerimeter=0;" parent="1" source="9j2e3ir7Lk6FHDookw-K-28" target="9j2e3ir7Lk6FHDookw-K-26" edge="1">
          <mxGeometry width="50" height="50" relative="1" as="geometry">
            <mxPoint x="550" y="120.41" as="sourcePoint" />
            <mxPoint x="622" y="120" as="targetPoint" />
          </mxGeometry>
        </mxCell>
        <mxCell id="9j2e3ir7Lk6FHDookw-K-41" value="" style="endArrow=open;html=1;fontFamily=VK Sans Display;fontColor=#212121;strokeColor=#7C8A9A;endFill=0;strokeWidth=2;arcSize=8;rounded=1;exitX=0.5;exitY=0;exitDx=0;exitDy=0;entryX=0;entryY=0.5;entryDx=0;entryDy=0;edgeStyle=orthogonalEdgeStyle;" parent="1" source="9j2e3ir7Lk6FHDookw-K-31" target="9j2e3ir7Lk6FHDookw-K-28" edge="1">
          <mxGeometry width="50" height="50" relative="1" as="geometry">
            <mxPoint x="379" y="90" as="sourcePoint" />
            <mxPoint x="492" y="70" as="targetPoint" />
          </mxGeometry>
        </mxCell>
        <mxCell id="9j2e3ir7Lk6FHDookw-K-45" value="" style="endArrow=open;html=1;fontFamily=VK Sans Display;fontColor=#212121;strokeColor=#7C8A9A;endFill=0;strokeWidth=2;arcSize=8;rounded=1;exitX=0.5;exitY=0;exitDx=0;exitDy=0;entryX=0;entryY=0.5;entryDx=0;entryDy=0;edgeStyle=orthogonalEdgeStyle;" parent="1" source="9j2e3ir7Lk6FHDookw-K-32" target="9j2e3ir7Lk6FHDookw-K-29" edge="1">
          <mxGeometry width="50" height="50" relative="1" as="geometry">
            <mxPoint x="536" y="316" as="sourcePoint" />
            <mxPoint x="589.0799999999999" y="259.5" as="targetPoint" />
          </mxGeometry>
        </mxCell>
        <mxCell id="9j2e3ir7Lk6FHDookw-K-47" value="" style="endArrow=open;html=1;fontFamily=VK Sans Display;fontColor=#212121;strokeColor=#7C8A9A;endFill=0;strokeWidth=2;arcSize=8;rounded=0;exitX=0.394;exitY=0.017;exitDx=0;exitDy=0;dashed=1;exitPerimeter=0;" parent="1" source="9j2e3ir7Lk6FHDookw-K-29" edge="1">
          <mxGeometry width="50" height="50" relative="1" as="geometry">
            <mxPoint x="623" y="258.40999999999997" as="sourcePoint" />
            <mxPoint x="623" y="179" as="targetPoint" />
            <Array as="points" />
          </mxGeometry>
        </mxCell>
        <mxCell id="9j2e3ir7Lk6FHDookw-K-50" value="" style="endArrow=open;html=1;fontFamily=VK Sans Display;fontColor=#212121;strokeColor=#7C8A9A;endFill=0;strokeWidth=2;arcSize=8;rounded=1;exitX=0.404;exitY=0;exitDx=0;exitDy=0;entryX=1;entryY=0.5;entryDx=0;entryDy=0;edgeStyle=orthogonalEdgeStyle;dashed=1;exitPerimeter=0;" parent="1" source="9j2e3ir7Lk6FHDookw-K-30" target="9j2e3ir7Lk6FHDookw-K-29" edge="1">
          <mxGeometry width="50" height="50" relative="1" as="geometry">
            <mxPoint x="823.5" y="308" as="sourcePoint" />
            <mxPoint x="839.9300000000001" y="189" as="targetPoint" />
          </mxGeometry>
        </mxCell>
        <mxCell id="9j2e3ir7Lk6FHDookw-K-52" value="" style="endArrow=open;html=1;fontFamily=VK Sans Display;fontColor=#212121;strokeColor=#7C8A9A;endFill=0;strokeWidth=2;arcSize=8;rounded=1;edgeStyle=orthogonalEdgeStyle;exitX=0.5;exitY=0;exitDx=0;exitDy=0;entryX=0;entryY=0.5;entryDx=0;entryDy=0;" parent="1" source="9j2e3ir7Lk6FHDookw-K-35" target="9j2e3ir7Lk6FHDookw-K-30" edge="1">
          <mxGeometry width="50" height="50" relative="1" as="geometry">
            <mxPoint x="670.0000000000002" y="427" as="sourcePoint" />
            <mxPoint x="710" y="366" as="targetPoint" />
            <Array as="points">
              <mxPoint x="670" y="429" />
              <mxPoint x="670" y="368" />
              <mxPoint x="711" y="368" />
            </Array>
          </mxGeometry>
        </mxCell>
        <mxCell id="f5HX-OZeqhqnF7wZsBNI-3" value="Connection&#xa;quality" style="shape=image;verticalLabelPosition=bottom;labelBackgroundColor=default;verticalAlign=bottom;aspect=fixed;imageAspect=0;image=data:image/svg+xml,PHN2ZyB4bWxucz0iaHR0cDovL3d3dy53My5vcmcvMjAwMC9zdmciIGZpbGw9Im5vbmUiIHZpZXdCb3g9IjAgMCAyOCAyOCIgaGVpZ2h0PSIyOCIgd2lkdGg9IjI4Ij4mI3hhOzxwYXRoIGZpbGw9IiM2QkIxRkYiIGQ9Ik0yNS4yIDQuMDAwMDVDMjUuMiAzLjMzNzMxIDI0LjY2MjcgMi44MDAwNSAyNCAyLjgwMDA1QzIzLjMzNzIgMi44MDAwNSAyMi44IDMuMzM3MzEgMjIuOCA0LjAwMDA1VjI0QzIyLjggMjQuNjYyOCAyMy4zMzcyIDI1LjIwMDEgMjQgMjUuMjAwMUMyNC42NjI3IDI1LjIwMDEgMjUuMiAyNC42NjI4IDI1LjIgMjRMMjUuMiA0LjAwMDA1Wk0xOSA2LjgwMDA1QzE5LjY2MjcgNi44MDAwNSAyMC4yIDcuMzM3MzEgMjAuMiA4LjAwMDA1TDIwLjIgMjRDMjAuMiAyNC42NjI4IDE5LjY2MjcgMjUuMjAwMSAxOSAyNS4yMDAxQzE4LjMzNzIgMjUuMjAwMSAxNy44IDI0LjY2MjggMTcuOCAyNEwxNy44IDguMDAwMDVDMTcuOCA3LjMzNzMxIDE4LjMzNzIgNi44MDAwNSAxOSA2LjgwMDA1Wk0xNS4yIDEyQzE1LjIgMTEuMzM3MyAxNC42NjI3IDEwLjggMTQgMTAuOEMxMy4zMzcyIDEwLjggMTIuOCAxMS4zMzczIDEyLjggMTJMMTIuOCAyNEMxMi44IDI0LjY2MjggMTMuMzM3MiAyNS4yMDAxIDE0IDI1LjIwMDFDMTQuNjYyNyAyNS4yMDAxIDE1LjIgMjQuNjYyOCAxNS4yIDI0TDE1LjIgMTJaTTguOTk5OTkgMTUuOEM5LjY2MjczIDE1LjggMTAuMiAxNi4zMzczIDEwLjIgMTdMMTAuMiAyNEMxMC4yIDI0LjY2MjggOS42NjI3MyAyNS4yIDguOTk5OTkgMjUuMkM4LjMzNzI1IDI1LjIgNy43OTk5OSAyNC42NjI4IDcuNzk5OTkgMjRMNy43OTk5OSAxN0M3Ljc5OTk5IDE2LjMzNzMgOC4zMzcyNSAxNS44IDguOTk5OTkgMTUuOFpNMy45OTk5OSAxOS44QzQuNjYyNzMgMTkuOCA1LjE5OTk5IDIwLjMzNzMgNS4xOTk5OSAyMUw1LjE5OTk5IDI0QzUuMTk5OTkgMjQuNjYyOCA0LjY2MjczIDI1LjIgMy45OTk5OSAyNS4yQzMuMzM3MjUgMjUuMiAyLjc5OTk5IDI0LjY2MjggMi43OTk5OSAyNFYyMUMyLjc5OTk5IDIwLjMzNzMgMy4zMzcyNSAxOS44IDMuOTk5OTkgMTkuOFoiIGNsaXAtcnVsZT0iZXZlbm9kZCIgZmlsbC1ydWxlPSJldmVub2RkIi8+JiN4YTs8L3N2Zz4=;fontFamily=VK Sans Display;fontSize=16;" parent="1" vertex="1">
          <mxGeometry x="81" y="98" width="40" height="40" as="geometry" />
        </mxCell>
        <mxCell id="f5HX-OZeqhqnF7wZsBNI-4" value="Connection&#xa;quality" style="shape=image;verticalLabelPosition=bottom;labelBackgroundColor=default;verticalAlign=bottom;aspect=fixed;imageAspect=0;image=data:image/svg+xml,PHN2ZyB4bWxucz0iaHR0cDovL3d3dy53My5vcmcvMjAwMC9zdmciIGZpbGw9Im5vbmUiIHZpZXdCb3g9IjAgMCAyOCAyOCIgaGVpZ2h0PSIyOCIgd2lkdGg9IjI4Ij4mI3hhOzxwYXRoIGZpbGw9IiM2QkIxRkYiIGQ9Ik0yNS4yIDQuMDAwMDVDMjUuMiAzLjMzNzMxIDI0LjY2MjcgMi44MDAwNSAyNCAyLjgwMDA1QzIzLjMzNzIgMi44MDAwNSAyMi44IDMuMzM3MzEgMjIuOCA0LjAwMDA1VjI0QzIyLjggMjQuNjYyOCAyMy4zMzcyIDI1LjIwMDEgMjQgMjUuMjAwMUMyNC42NjI3IDI1LjIwMDEgMjUuMiAyNC42NjI4IDI1LjIgMjRMMjUuMiA0LjAwMDA1Wk0xOSA2LjgwMDA1QzE5LjY2MjcgNi44MDAwNSAyMC4yIDcuMzM3MzEgMjAuMiA4LjAwMDA1TDIwLjIgMjRDMjAuMiAyNC42NjI4IDE5LjY2MjcgMjUuMjAwMSAxOSAyNS4yMDAxQzE4LjMzNzIgMjUuMjAwMSAxNy44IDI0LjY2MjggMTcuOCAyNEwxNy44IDguMDAwMDVDMTcuOCA3LjMzNzMxIDE4LjMzNzIgNi44MDAwNSAxOSA2LjgwMDA1Wk0xNS4yIDEyQzE1LjIgMTEuMzM3MyAxNC42NjI3IDEwLjggMTQgMTAuOEMxMy4zMzcyIDEwLjggMTIuOCAxMS4zMzczIDEyLjggMTJMMTIuOCAyNEMxMi44IDI0LjY2MjggMTMuMzM3MiAyNS4yMDAxIDE0IDI1LjIwMDFDMTQuNjYyNyAyNS4yMDAxIDE1LjIgMjQuNjYyOCAxNS4yIDI0TDE1LjIgMTJaTTguOTk5OTkgMTUuOEM5LjY2MjczIDE1LjggMTAuMiAxNi4zMzczIDEwLjIgMTdMMTAuMiAyNEMxMC4yIDI0LjY2MjggOS42NjI3MyAyNS4yIDguOTk5OTkgMjUuMkM4LjMzNzI1IDI1LjIgNy43OTk5OSAyNC42NjI4IDcuNzk5OTkgMjRMNy43OTk5OSAxN0M3Ljc5OTk5IDE2LjMzNzMgOC4zMzcyNSAxNS44IDguOTk5OTkgMTUuOFpNMy45OTk5OSAxOS44QzQuNjYyNzMgMTkuOCA1LjE5OTk5IDIwLjMzNzMgNS4xOTk5OSAyMUw1LjE5OTk5IDI0QzUuMTk5OTkgMjQuNjYyOCA0LjY2MjczIDI1LjIgMy45OTk5OSAyNS4yQzMuMzM3MjUgMjUuMiAyLjc5OTk5IDI0LjY2MjggMi43OTk5OSAyNFYyMUMyLjc5OTk5IDIwLjMzNzMgMy4zMzcyNSAxOS44IDMuOTk5OTkgMTkuOFoiIGNsaXAtcnVsZT0iZXZlbm9kZCIgZmlsbC1ydWxlPSJldmVub2RkIi8+JiN4YTs8L3N2Zz4=;fontFamily=VK Sans Display;fontSize=16;" parent="1" vertex="1">
          <mxGeometry x="404.43" y="218" width="40" height="40" as="geometry" />
        </mxCell>
        <mxCell id="f5HX-OZeqhqnF7wZsBNI-5" value="" style="shape=image;verticalLabelPosition=bottom;labelBackgroundColor=default;verticalAlign=bottom;aspect=fixed;imageAspect=0;image=data:image/svg+xml,PHN2ZyB4bWxucz0iaHR0cDovL3d3dy53My5vcmcvMjAwMC9zdmciIGZpbGw9Im5vbmUiIHZpZXdCb3g9IjAgMCAyOCAyOCIgaGVpZ2h0PSIyOCIgd2lkdGg9IjI4Ij4mI3hhOzxwYXRoIGZpbGw9IiM2QkIxRkYiIGQ9Ik0yNS4yIDQuMDAwMDVDMjUuMiAzLjMzNzMxIDI0LjY2MjcgMi44MDAwNSAyNCAyLjgwMDA1QzIzLjMzNzIgMi44MDAwNSAyMi44IDMuMzM3MzEgMjIuOCA0LjAwMDA1VjI0QzIyLjggMjQuNjYyOCAyMy4zMzcyIDI1LjIwMDEgMjQgMjUuMjAwMUMyNC42NjI3IDI1LjIwMDEgMjUuMiAyNC42NjI4IDI1LjIgMjRMMjUuMiA0LjAwMDA1Wk0xOSA2LjgwMDA1QzE5LjY2MjcgNi44MDAwNSAyMC4yIDcuMzM3MzEgMjAuMiA4LjAwMDA1TDIwLjIgMjRDMjAuMiAyNC42NjI4IDE5LjY2MjcgMjUuMjAwMSAxOSAyNS4yMDAxQzE4LjMzNzIgMjUuMjAwMSAxNy44IDI0LjY2MjggMTcuOCAyNEwxNy44IDguMDAwMDVDMTcuOCA3LjMzNzMxIDE4LjMzNzIgNi44MDAwNSAxOSA2LjgwMDA1Wk0xNS4yIDEyQzE1LjIgMTEuMzM3MyAxNC42NjI3IDEwLjggMTQgMTAuOEMxMy4zMzcyIDEwLjggMTIuOCAxMS4zMzczIDEyLjggMTJMMTIuOCAyNEMxMi44IDI0LjY2MjggMTMuMzM3MiAyNS4yMDAxIDE0IDI1LjIwMDFDMTQuNjYyNyAyNS4yMDAxIDE1LjIgMjQuNjYyOCAxNS4yIDI0TDE1LjIgMTJaTTguOTk5OTkgMTUuOEM5LjY2MjczIDE1LjggMTAuMiAxNi4zMzczIDEwLjIgMTdMMTAuMiAyNEMxMC4yIDI0LjY2MjggOS42NjI3MyAyNS4yIDguOTk5OTkgMjUuMkM4LjMzNzI1IDI1LjIgNy43OTk5OSAyNC42NjI4IDcuNzk5OTkgMjRMNy43OTk5OSAxN0M3Ljc5OTk5IDE2LjMzNzMgOC4zMzcyNSAxNS44IDguOTk5OTkgMTUuOFpNMy45OTk5OSAxOS44QzQuNjYyNzMgMTkuOCA1LjE5OTk5IDIwLjMzNzMgNS4xOTk5OSAyMUw1LjE5OTk5IDI0QzUuMTk5OTkgMjQuNjYyOCA0LjY2MjczIDI1LjIgMy45OTk5OSAyNS4yQzMuMzM3MjUgMjUuMiAyLjc5OTk5IDI0LjY2MjggMi43OTk5OSAyNFYyMUMyLjc5OTk5IDIwLjMzNzMgMy4zMzcyNSAxOS44IDMuOTk5OTkgMTkuOFoiIGNsaXAtcnVsZT0iZXZlbm9kZCIgZmlsbC1ydWxlPSJldmVub2RkIi8+JiN4YTs8L3N2Zz4=;fontFamily=VK Sans Display;fontSize=16;" parent="1" vertex="1">
          <mxGeometry x="503.43" y="314" width="40" height="40" as="geometry" />
        </mxCell>
        <mxCell id="f5HX-OZeqhqnF7wZsBNI-6" value="" style="shape=image;verticalLabelPosition=bottom;labelBackgroundColor=default;verticalAlign=bottom;aspect=fixed;imageAspect=0;image=data:image/svg+xml,PHN2ZyB4bWxucz0iaHR0cDovL3d3dy53My5vcmcvMjAwMC9zdmciIGZpbGw9Im5vbmUiIHZpZXdCb3g9IjAgMCAyOCAyOCIgaGVpZ2h0PSIyOCIgd2lkdGg9IjI4Ij4mI3hhOzxwYXRoIGZpbGw9IiM2QkIxRkYiIGQ9Ik0yNS4yIDQuMDAwMDVDMjUuMiAzLjMzNzMxIDI0LjY2MjcgMi44MDAwNSAyNCAyLjgwMDA1QzIzLjMzNzIgMi44MDAwNSAyMi44IDMuMzM3MzEgMjIuOCA0LjAwMDA1VjI0QzIyLjggMjQuNjYyOCAyMy4zMzcyIDI1LjIwMDEgMjQgMjUuMjAwMUMyNC42NjI3IDI1LjIwMDEgMjUuMiAyNC42NjI4IDI1LjIgMjRMMjUuMiA0LjAwMDA1Wk0xOSA2LjgwMDA1QzE5LjY2MjcgNi44MDAwNSAyMC4yIDcuMzM3MzEgMjAuMiA4LjAwMDA1TDIwLjIgMjRDMjAuMiAyNC42NjI4IDE5LjY2MjcgMjUuMjAwMSAxOSAyNS4yMDAxQzE4LjMzNzIgMjUuMjAwMSAxNy44IDI0LjY2MjggMTcuOCAyNEwxNy44IDguMDAwMDVDMTcuOCA3LjMzNzMxIDE4LjMzNzIgNi44MDAwNSAxOSA2LjgwMDA1Wk0xNS4yIDEyQzE1LjIgMTEuMzM3MyAxNC42NjI3IDEwLjggMTQgMTAuOEMxMy4zMzcyIDEwLjggMTIuOCAxMS4zMzczIDEyLjggMTJMMTIuOCAyNEMxMi44IDI0LjY2MjggMTMuMzM3MiAyNS4yMDAxIDE0IDI1LjIwMDFDMTQuNjYyNyAyNS4yMDAxIDE1LjIgMjQuNjYyOCAxNS4yIDI0TDE1LjIgMTJaTTguOTk5OTkgMTUuOEM5LjY2MjczIDE1LjggMTAuMiAxNi4zMzczIDEwLjIgMTdMMTAuMiAyNEMxMC4yIDI0LjY2MjggOS42NjI3MyAyNS4yIDguOTk5OTkgMjUuMkM4LjMzNzI1IDI1LjIgNy43OTk5OSAyNC42NjI4IDcuNzk5OTkgMjRMNy43OTk5OSAxN0M3Ljc5OTk5IDE2LjMzNzMgOC4zMzcyNSAxNS44IDguOTk5OTkgMTUuOFpNMy45OTk5OSAxOS44QzQuNjYyNzMgMTkuOCA1LjE5OTk5IDIwLjMzNzMgNS4xOTk5OSAyMUw1LjE5OTk5IDI0QzUuMTk5OTkgMjQuNjYyOCA0LjY2MjczIDI1LjIgMy45OTk5OSAyNS4yQzMuMzM3MjUgMjUuMiAyLjc5OTk5IDI0LjY2MjggMi43OTk5OSAyNFYyMUMyLjc5OTk5IDIwLjMzNzMgMy4zMzcyNSAxOS44IDMuOTk5OTkgMTkuOFoiIGNsaXAtcnVsZT0iZXZlbm9kZCIgZmlsbC1ydWxlPSJldmVub2RkIi8+JiN4YTs8L3N2Zz4=;fontFamily=VK Sans Display;fontSize=16;" parent="1" vertex="1">
          <mxGeometry x="618" y="427" width="40" height="40" as="geometry" />
        </mxCell>
      </root>
    </mxGraphModel>
  </diagram>
</mxfile>
